<?xml version="1.0" standalone="no"?>
<!DOCTYPE svg PUBLIC "-//W3C//DTD SVG 20010904//EN"
 "http://www.w3.org/TR/2001/REC-SVG-20010904/DTD/svg10.dtd">
<svg version="1.0" xmlns="http://www.w3.org/2000/svg"
 width="720.000000pt" height="720.000000pt" viewBox="0 0 720.000000 720.000000"
 preserveAspectRatio="xMidYMid meet">
<metadata>
Created by potrace 1.14, written by Peter Selinger 2001-2017
</metadata>
<g transform="translate(0.000000,720.000000) scale(0.100000,-0.100000)"
fill="#000000" stroke="none">
<path d="M1327 6959 c7 -7 15 -10 18 -7 3 3 -2 9 -12 12 -14 6 -15 5 -6 -5z"/>
<path d="M755 6931 c-3 -5 -2 -12 3 -15 5 -3 9 1 9 9 0 17 -3 19 -12 6z"/>
<path d="M357 6848 c2 -5 -4 -8 -14 -8 -11 0 -23 -4 -28 -9 -6 -5 -19 -11 -30
-13 -11 -1 -22 -6 -25 -9 -3 -4 -25 -23 -48 -43 -24 -20 -40 -36 -36 -36 5 0
-2 -7 -14 -16 -12 -8 -22 -22 -22 -30 0 -8 -4 -14 -9 -14 -9 0 -26 -48 -23
-62 1 -5 -2 -8 -6 -8 -11 0 -12 -169 0 -176 4 -3 6 -10 3 -15 -4 -5 3 -23 15
-39 12 -17 19 -30 15 -30 -8 0 11 -22 57 -68 50 -51 65 -62 72 -55 3 4 6 1 6
-5 0 -7 3 -12 8 -11 14 2 52 -13 52 -21 0 -5 12 -7 26 -5 14 1 31 -3 38 -10 8
-9 18 -10 29 -3 10 5 17 5 17 0 0 -5 17 -6 39 -2 22 4 45 4 52 -1 7 -4 20 -4
30 1 9 5 19 7 22 3 9 -8 113 -7 127 2 8 5 11 4 7 -2 -7 -11 136 -9 154 3 7 4
9 3 6 -3 -7 -12 96 -9 115 3 8 5 9 1 4 -11 -5 -15 -4 -16 8 -5 9 6 21 10 28 7
7 -2 22 0 32 6 16 8 18 6 12 -8 -5 -14 -4 -15 7 -7 7 6 22 9 32 8 11 -2 30 1
43 5 12 5 22 5 22 1 0 -4 11 -7 25 -7 14 0 25 4 25 8 0 4 8 3 18 -2 10 -6 24
-6 32 -1 8 5 17 7 20 5 8 -5 84 -7 138 -3 33 2 41 0 37 -11 -5 -11 -3 -12 10
-1 9 7 18 10 22 7 3 -4 14 -2 24 4 11 5 19 6 19 2 0 -4 27 -8 60 -8 33 0 60 3
60 7 0 4 6 5 14 2 27 -10 156 -9 160 1 3 6 5 6 5 0 1 -12 82 -12 100 -1 6 4
11 4 11 -1 0 -4 11 -8 25 -8 14 0 25 4 25 8 0 5 5 5 11 1 14 -8 97 -9 105 -1
3 3 19 1 35 -3 18 -5 29 -5 29 1 0 6 6 6 18 0 11 -6 24 -6 35 0 9 6 17 6 17 2
0 -6 90 -9 110 -3 3 1 23 1 45 1 37 -1 65 -1 98 0 6 0 31 -2 55 -4 23 -2 42
-1 42 2 0 6 68 6 183 0 26 -1 50 0 53 3 3 3 21 2 40 -2 21 -5 37 -4 41 3 4 6
10 5 17 -4 6 -8 20 -16 31 -17 40 -4 55 -8 67 -20 7 -7 17 -12 24 -12 6 0 23
-11 38 -25 15 -14 31 -25 37 -25 5 0 9 -5 9 -11 0 -7 8 -19 18 -28 22 -21 56
-81 45 -81 -4 0 -1 -5 8 -10 10 -6 15 -22 13 -50 -1 -22 2 -43 7 -46 15 -9 11
-46 -3 -38 -10 6 -10 4 0 -7 16 -18 16 -73 0 -63 -10 6 -10 5 -1 -7 17 -21 17
-257 0 -278 -8 -10 -8 -13 0 -8 8 5 11 -66 11 -288 0 -216 -3 -293 -12 -288
-8 5 -8 3 1 -8 12 -15 16 -192 4 -184 -4 2 -7 -9 -6 -25 1 -17 -2 -30 -6 -30
-4 0 -10 -14 -14 -30 -6 -27 -9 -29 -23 -18 -12 10 -14 10 -8 0 4 -7 4 -21 1
-33 -6 -17 -9 -18 -23 -7 -13 11 -14 11 -8 0 5 -9 0 -21 -14 -34 -18 -17 -24
-18 -32 -7 -8 12 -9 11 -5 -1 6 -19 -13 -38 -36 -34 -9 1 -19 -2 -22 -7 -3 -4
-267 -8 -586 -9 -320 0 -585 -3 -590 -6 -5 -3 -9 -2 -9 3 0 4 -105 7 -232 6
-389 -4 -970 -5 -973 -1 -6 6 -279 -9 -305 -16 -14 -4 -32 -8 -40 -9 -8 -1
-19 -8 -23 -14 -4 -7 -12 -13 -18 -13 -11 0 -24 -10 -80 -61 -21 -20 -39 -42
-39 -48 0 -6 -3 -11 -8 -11 -6 0 -14 -15 -38 -75 -9 -25 -14 -195 -5 -195 4 0
8 -10 8 -22 1 -13 7 -24 13 -26 5 -2 10 -13 10 -23 0 -13 4 -18 12 -13 8 5 9
0 6 -14 -4 -12 -3 -20 2 -17 4 3 22 -11 39 -30 17 -19 37 -35 45 -35 8 0 18
-9 21 -20 4 -11 10 -18 14 -15 5 2 26 -4 47 -14 21 -11 42 -17 46 -14 5 2 14
1 21 -4 6 -4 570 -8 1252 -8 710 0 1246 -4 1254 -9 10 -6 12 -5 7 2 -4 7 -3
12 2 12 6 0 12 -6 15 -14 4 -11 14 -12 41 -6 20 4 36 4 36 0 0 -8 34 -22 60
-24 8 -1 14 -7 13 -14 -2 -7 0 -11 5 -11 24 4 42 -2 36 -13 -5 -8 -2 -9 10 -5
14 6 17 3 12 -10 -4 -10 -4 -14 0 -11 11 12 46 -12 40 -27 -3 -9 0 -12 10 -8
9 3 14 -2 14 -17 0 -11 4 -19 9 -15 9 5 27 -32 23 -47 -1 -5 2 -8 6 -8 10 0 9
-30 -1 -48 -6 -8 -3 -10 7 -6 13 5 15 -9 15 -90 0 -68 -3 -96 -12 -96 -9 0 -9
-2 0 -8 16 -10 16 -1052 0 -1052 -6 0 -7 -3 -4 -7 4 -3 -1 -12 -11 -20 -9 -8
-11 -11 -4 -8 11 6 11 3 0 -16 -7 -13 -17 -27 -23 -31 -5 -4 -10 -13 -10 -20
0 -7 -8 -12 -17 -12 -11 1 -14 -4 -11 -14 4 -10 2 -13 -5 -8 -7 4 -12 1 -12
-9 0 -9 -4 -14 -9 -10 -5 3 -13 0 -16 -5 -7 -11 -42 -28 -75 -37 -31 -9 -465
-8 -477 1 -7 4 -13 5 -13 0 0 -5 -474 -9 -1082 -10 -596 -1 -1096 -4 -1112 -8
-16 -4 -37 -11 -48 -17 -10 -5 -18 -7 -18 -3 0 3 -7 1 -15 -6 -8 -7 -15 -9
-15 -5 0 4 -9 -3 -20 -16 -10 -13 -19 -20 -20 -16 0 4 -11 -3 -23 -17 -13 -14
-26 -23 -29 -20 -3 3 -8 -7 -12 -21 -4 -14 -11 -25 -16 -25 -6 0 -10 -7 -10
-16 0 -9 -5 -12 -12 -8 -6 4 -8 3 -4 -4 3 -6 1 -23 -6 -39 -13 -31 -20 -212
-9 -228 4 -5 7 -17 6 -25 0 -8 4 -18 10 -22 5 -4 10 -12 10 -18 0 -16 96 -120
111 -120 6 0 15 -7 18 -16 3 -9 13 -14 21 -10 8 3 17 1 20 -4 4 -6 15 -10 26
-10 10 0 19 -4 19 -8 0 -5 263 -9 584 -9 321 0 589 -4 595 -7 6 -4 11 -4 11 1
0 10 2213 9 2229 -1 6 -4 11 -4 11 1 0 9 1769 9 1794 0 9 -4 15 -3 12 1 -2 4
288 6 645 6 374 -1 649 2 649 7 0 5 11 9 24 9 14 0 31 7 40 15 8 9 18 16 21
15 3 0 9 0 14 0 13 0 121 105 121 118 0 6 8 16 18 21 9 6 13 11 8 11 -5 0 -3
7 4 15 6 8 9 19 5 26 -4 6 -2 15 4 19 13 7 19 155 7 167 -3 3 -6 15 -6 25 0
10 -4 18 -10 18 -5 0 -10 6 -10 14 0 8 -7 21 -15 30 -8 8 -19 26 -24 39 -14
37 -127 109 -201 130 -22 6 -540 10 -1354 11 -968 2 -1321 5 -1324 14 -2 6
-10 8 -18 5 -18 -7 -57 19 -103 67 -58 60 -56 57 -76 133 -2 4 -4 8 -5 10 -1
1 -4 976 -5 2167 -1 1191 -5 2179 -9 2195 -9 37 -38 99 -49 103 -4 2 -7 10 -7
17 0 8 -10 21 -22 29 -12 9 -19 16 -14 16 5 0 -7 10 -26 23 -61 40 -99 59
-105 53 -4 -3 -12 -1 -20 6 -16 13 -3385 19 -3376 6z"/>
<path d="M153 6765 c0 -8 4 -12 9 -9 5 3 6 10 3 15 -9 13 -12 11 -12 -6z"/>
<path d="M80 6680 c-9 -6 -10 -10 -3 -10 6 0 15 5 18 10 8 12 4 12 -15 0z"/>
<path d="M1296 6142 c-3 -4 4 -9 15 -9 23 -2 25 3 4 10 -8 4 -16 3 -19 -1z"/>
<path d="M2315 6129 c-4 -6 -5 -12 -2 -15 2 -3 7 2 10 11 7 17 1 20 -8 4z"/>
<path d="M735 6081 c-3 -5 -2 -12 3 -15 5 -3 9 1 9 9 0 17 -3 19 -12 6z"/>
<path d="M856 6073 c-6 -14 -5 -15 5 -6 7 7 10 15 7 18 -3 3 -9 -2 -12 -12z"/>
<path d="M3116 6033 c-6 -14 -5 -15 5 -6 7 7 10 15 7 18 -3 3 -9 -2 -12 -12z"/>
<path d="M3115 5929 c-4 -6 -5 -12 -2 -15 2 -3 7 2 10 11 7 17 1 20 -8 4z"/>
<path d="M3216 4738 c3 -5 10 -6 15 -3 13 9 11 12 -6 12 -8 0 -12 -4 -9 -9z"/>
<path d="M3190 4681 c0 -6 4 -13 10 -16 6 -3 7 1 4 9 -7 18 -14 21 -14 7z"/>
<path d="M3130 4646 c0 -2 7 -7 16 -10 8 -3 12 -2 9 4 -6 10 -25 14 -25 6z"/>
<path d="M3147 4599 c7 -7 15 -10 18 -7 3 3 -2 9 -12 12 -14 6 -15 5 -6 -5z"/>
<path d="M3090 4540 c0 -5 5 -10 11 -10 5 0 7 5 4 10 -3 6 -8 10 -11 10 -2 0
-4 -4 -4 -10z"/>
<path d="M3014 4516 c1 -8 5 -18 8 -22 4 -3 5 1 4 10 -1 8 -5 18 -8 22 -4 3
-5 -1 -4 -10z"/>
<path d="M1770 4479 c0 -5 5 -7 10 -4 6 3 10 8 10 11 0 2 -4 4 -10 4 -5 0 -10
-5 -10 -11z"/>
<path d="M2950 4478 c0 -4 4 -8 9 -8 6 0 12 4 15 8 3 5 -1 9 -9 9 -8 0 -15 -4
-15 -9z"/>
<path d="M2895 4461 c-3 -5 -2 -12 3 -15 5 -3 9 1 9 9 0 17 -3 19 -12 6z"/>
<path d="M2210 3680 c0 -5 5 -10 11 -10 5 0 7 5 4 10 -3 6 -8 10 -11 10 -2 0
-4 -4 -4 -10z"/>
<path d="M3027 3559 c7 -7 15 -10 18 -7 3 3 -2 9 -12 12 -14 6 -15 5 -6 -5z"/>
<path d="M3176 3522 c-2 -4 -1 -14 4 -22 7 -11 9 -9 7 8 -1 24 -3 26 -11 14z"/>
<path d="M3149 3403 c-13 -16 -12 -17 4 -4 9 7 17 15 17 17 0 8 -8 3 -21 -13z"/>
<path d="M3159 3353 c-13 -16 -12 -17 4 -4 16 13 21 21 13 21 -2 0 -10 -8 -17
-17z"/>
<path d="M3116 2678 c3 -5 10 -6 15 -3 13 9 11 12 -6 12 -8 0 -12 -4 -9 -9z"/>
<path d="M3073 2245 c0 -8 4 -12 9 -9 5 3 6 10 3 15 -9 13 -12 11 -12 -6z"/>
<path d="M3090 2119 c0 -5 5 -7 10 -4 6 3 10 8 10 11 0 2 -4 4 -10 4 -5 0 -10
-5 -10 -11z"/>
<path d="M4075 2120 c-3 -5 -1 -10 4 -10 6 0 11 5 11 10 0 6 -2 10 -4 10 -3 0
-8 -4 -11 -10z"/>
<path d="M4115 2100 c3 -5 8 -10 11 -10 2 0 4 5 4 10 0 6 -5 10 -11 10 -5 0
-7 -4 -4 -10z"/>
<path d="M2415 2080 c3 -5 8 -10 11 -10 2 0 4 5 4 10 0 6 -5 10 -11 10 -5 0
-7 -4 -4 -10z"/>
<path d="M4134 2062 c4 -3 14 -7 22 -8 9 -1 13 0 10 4 -4 3 -14 7 -22 8 -9 1
-13 0 -10 -4z"/>
<path d="M2990 2041 c0 -6 4 -13 10 -16 6 -3 7 1 4 9 -7 18 -14 21 -14 7z"/>
<path d="M5379 2033 c-13 -16 -12 -17 4 -4 9 7 17 15 17 17 0 8 -8 3 -21 -13z"/>
<path d="M1550 1280 c0 -5 5 -10 11 -10 5 0 7 5 4 10 -3 6 -8 10 -11 10 -2 0
-4 -4 -4 -10z"/>
<path d="M6716 1267 c3 -10 9 -15 12 -12 3 3 0 11 -7 18 -10 9 -11 8 -5 -6z"/>
<path d="M3350 1201 c0 -6 4 -13 10 -16 6 -3 7 1 4 9 -7 18 -14 21 -14 7z"/>
<path d="M3670 1201 c0 -6 4 -13 10 -16 6 -3 7 1 4 9 -7 18 -14 21 -14 7z"/>
<path d="M3353 1125 c0 -8 4 -12 9 -9 5 3 6 10 3 15 -9 13 -12 11 -12 -6z"/>
<path d="M6830 923 c-117 -24 -139 -37 -184 -108 -23 -35 -28 -156 -8 -163 7
-2 12 -9 12 -15 0 -16 51 -67 67 -67 7 0 13 -5 13 -11 0 -5 4 -8 9 -4 5 3 12
1 15 -4 6 -9 55 -23 91 -25 37 -3 110 -28 128 -43 9 -9 17 -24 17 -33 0 -22
-30 -54 -55 -58 -46 -8 -111 -8 -125 -1 -27 13 -75 33 -82 33 -3 1 -10 4 -14
9 -4 4 -21 7 -38 7 -24 0 -36 -8 -54 -35 -19 -29 -21 -39 -11 -58 25 -49 88
-87 174 -105 32 -7 148 -7 176 0 49 12 108 48 136 83 15 19 28 38 29 42 0 5 4
15 7 23 7 16 4 114 -4 140 -6 21 -109 119 -109 104 0 -3 -6 -2 -12 3 -12 9
-56 24 -83 28 -24 3 -91 17 -105 21 -8 3 -16 5 -18 4 -5 -1 -32 28 -32 35 0
12 30 36 52 42 41 11 131 4 156 -11 7 -4 29 -8 49 -9 66 -2 102 71 60 121 -11
14 -53 35 -72 37 -5 0 -14 3 -20 6 -5 4 -25 7 -43 7 -18 0 -39 5 -45 10 -7 5
-39 3 -77 -5z"/>
<path d="M2246 921 c-3 -5 -15 -7 -27 -4 -11 3 -30 1 -42 -5 -12 -5 -37 -15
-54 -22 -18 -7 -33 -16 -33 -21 0 -5 -5 -9 -11 -9 -6 0 -28 -18 -50 -40 -22
-22 -37 -40 -33 -40 4 0 0 -8 -8 -17 -35 -43 -52 -104 -51 -190 0 -47 4 -88 9
-91 5 -4 9 -11 10 -17 2 -24 27 -75 37 -75 6 0 8 -3 4 -6 -10 -10 84 -92 133
-117 25 -12 55 -22 67 -22 12 0 25 -4 29 -8 10 -10 104 -9 104 2 0 4 14 7 30
5 17 -2 30 1 30 6 0 6 7 10 17 10 23 0 111 59 126 84 6 12 12 62 12 114 1 83
-2 95 -22 114 -30 29 -70 31 -98 6 -14 -12 -22 -25 -19 -30 3 -4 0 -8 -5 -8
-7 0 -11 -26 -11 -65 0 -51 -3 -65 -15 -65 -8 0 -15 -4 -15 -10 0 -5 -7 -7
-15 -4 -8 4 -15 2 -15 -3 0 -5 -22 -9 -50 -9 -27 0 -50 3 -50 7 0 4 -13 10
-29 14 -29 6 -100 73 -103 98 -2 19 -4 30 -12 59 -5 16 -5 36 -1 45 5 10 10
27 12 38 2 11 10 25 18 31 8 6 12 14 9 17 -13 12 55 60 106 75 41 11 80 13 80
4 0 -6 8 -9 17 -8 20 3 45 -9 93 -45 41 -31 71 -31 103 0 67 62 -33 173 -182
201 -67 12 -88 13 -95 1z"/>
<path d="M144 908 c-3 -4 -9 -6 -13 -3 -5 2 -14 -8 -21 -23 -11 -20 -14 -95
-15 -306 l-1 -278 25 -27 26 -27 220 0 219 1 23 33 c18 27 20 38 12 60 -13 35
-29 53 -40 46 -5 -3 -9 -1 -9 4 0 5 -67 9 -157 9 l-158 -1 -3 52 c-2 29 1 52
5 53 4 0 18 2 31 3 12 2 22 -2 22 -8 0 -7 3 -7 8 -1 9 13 52 15 52 3 0 -5 5
-6 10 -3 6 4 42 7 80 9 92 2 116 24 111 101 -2 38 -34 46 -181 47 l-138 0 -4
54 c-1 30 -1 55 2 55 3 1 77 2 165 3 88 1 166 5 173 9 23 15 43 65 33 84 -5
10 -12 26 -15 36 -3 10 -10 16 -15 12 -5 -3 -12 -1 -16 5 -8 12 -423 11 -431
-2z"/>
<path d="M900 909 c0 -5 -4 -8 -9 -5 -5 3 -15 -4 -23 -17 -11 -18 -14 -79 -13
-316 l0 -294 25 -16 c20 -13 58 -16 237 -17 212 0 213 0 235 24 31 32 31 76 1
104 -23 22 -33 23 -176 25 -84 1 -157 2 -162 2 -7 1 -10 56 -10 157 1 85 -3
158 -8 161 -4 2 -4 10 1 16 8 10 9 49 3 120 -2 26 -50 67 -77 67 -13 0 -24 -5
-24 -11z"/>
<path d="M1582 897 c-21 -23 -22 -29 -22 -313 -1 -160 2 -298 5 -306 10 -26
78 -47 90 -28 4 6 11 8 16 4 5 -3 16 11 25 31 12 30 14 83 12 310 -3 263 -4
275 -24 295 -32 32 -76 35 -102 7z"/>
<path d="M2808 895 c-23 -25 -23 -25 -23 -320 0 -253 3 -297 16 -310 20 -20
68 -26 94 -11 11 6 21 12 23 12 8 4 15 59 16 139 l1 90 135 5 c198 7 180 18
180 -110 0 -85 3 -112 16 -124 8 -9 18 -17 22 -17 39 -7 62 -6 62 0 0 5 8 11
18 14 25 6 50 111 30 123 -5 3 -5 10 -1 17 8 14 11 57 3 57 -3 0 -6 9 -6 20 0
11 3 20 6 20 3 0 5 16 5 35 0 19 -3 35 -7 35 -4 0 -3 13 2 28 4 16 4 36 -2 45
-5 10 -5 17 0 17 10 0 7 55 -4 72 -4 6 -3 9 2 5 10 -6 10 72 -1 119 -7 30 -47
64 -78 64 -8 0 -26 -9 -41 -21 -25 -20 -26 -23 -26 -135 l0 -114 -157 2 -158
3 -1 90 c-1 123 -1 121 -29 150 -33 32 -68 32 -97 0z"/>
<path d="M3630 911 c0 -5 -8 -11 -19 -14 -20 -5 -31 -43 -24 -81 7 -36 46 -51
132 -51 l76 0 5 -248 c5 -248 7 -262 40 -268 3 0 14 -2 24 -4 18 -4 75 22 77
35 7 42 12 180 7 180 -4 0 -3 13 2 29 5 19 4 33 -3 40 -6 6 -7 11 -1 11 5 0 9
36 9 80 0 44 -3 80 -6 80 -4 0 -3 15 0 32 l7 33 69 0 c39 1 80 5 93 9 50 17
51 106 2 131 -21 11 -80 14 -259 15 -127 0 -231 -4 -231 -9z"/>
<path d="M4373 897 c-23 -23 -23 -25 -23 -319 0 -256 2 -299 16 -312 20 -20 4
-19 249 -21 209 -1 210 -1 233 22 29 31 29 79 0 104 -27 24 -9 22 -186 24 -99
2 -157 6 -165 14 -8 8 -8 11 1 11 10 0 10 5 2 20 -6 11 -7 20 -1 20 5 0 6 14
1 35 -4 20 -4 38 1 41 5 3 5 13 -1 25 -6 11 -7 19 -1 19 5 0 6 14 1 35 -4 19
-4 37 1 40 4 3 4 17 -1 30 -6 16 -6 27 1 31 6 3 6 10 1 17 -5 7 -6 23 -2 37
10 39 -8 103 -36 128 -31 28 -62 27 -91 -1z"/>
<path d="M5306 913 c-4 -5 -12 -8 -18 -8 -6 0 -24 -24 -39 -53 -56 -103 -120
-232 -119 -238 1 -4 -2 -10 -7 -13 -4 -3 -27 -42 -50 -86 -23 -44 -53 -102
-67 -129 -43 -80 -23 -132 53 -141 28 -4 70 24 63 43 -2 6 0 12 5 12 4 0 14
12 20 28 l13 27 167 0 167 0 23 -40 c13 -22 27 -46 32 -53 10 -17 81 -28 81
-13 0 6 7 11 16 11 8 0 13 4 10 9 -4 5 -1 11 5 13 21 7 16 52 -10 103 -14 28
-29 51 -33 53 -4 2 -4 10 -1 18 3 8 1 14 -4 14 -5 0 -20 23 -33 50 -13 28 -27
50 -32 50 -5 0 -7 4 -3 9 3 5 1 12 -5 16 -6 4 -8 11 -5 16 4 5 1 9 -4 9 -6 0
-11 7 -11 15 0 8 -4 15 -10 15 -5 0 -10 3 -9 8 2 16 -14 52 -24 52 -6 0 -8 2
-5 6 3 3 -5 24 -18 47 -13 23 -33 61 -45 85 -30 59 -78 89 -103 65z m68 -319
c25 -47 46 -89 46 -93 0 -13 -180 -7 -185 7 -2 6 -1 12 4 12 8 0 19 28 19 47
0 3 4 9 9 12 5 3 20 27 33 54 14 26 26 47 27 47 1 0 22 -39 47 -86z"/>
<path d="M5903 910 c-19 -8 -40 -44 -35 -62 1 -5 -2 -8 -7 -8 -6 0 -6 -12 -1
-30 5 -16 6 -30 2 -30 -4 0 -5 -43 -2 -95 3 -52 2 -105 -1 -117 -3 -13 -2 -35
2 -50 4 -15 3 -30 -2 -33 -5 -4 -5 -14 1 -25 7 -13 7 -21 0 -25 -6 -4 -7 -11
-3 -18 9 -14 11 -57 2 -57 -15 0 16 -92 35 -103 26 -14 325 -18 344 -4 6 5 12
7 12 3 0 -12 55 21 84 50 34 34 55 75 58 109 1 14 5 25 9 25 8 0 6 16 -5 41
-4 10 -7 23 -6 30 3 23 -11 57 -26 63 -16 6 -19 42 -4 51 6 4 8 10 5 15 -3 5
-1 11 4 14 12 7 11 126 0 126 -5 0 -8 3 -7 8 9 27 -70 105 -122 121 -29 9
-315 10 -337 1z m316 -172 c13 -23 13 -28 -1 -50 -15 -22 -21 -23 -109 -22
l-94 1 -3 37 c-5 61 -3 62 99 61 90 -1 94 -2 108 -27z m-10 -211 c13 -6 24
-16 23 -22 0 -5 4 -15 10 -22 11 -14 2 -51 -19 -71 -13 -13 -89 -18 -195 -13
-15 1 -18 11 -17 71 l1 70 87 0 c48 0 96 -6 110 -13z"/>
</g>
</svg>
