<svg xmlns="http://www.w3.org/2000/svg" width="1134" height="304" fill="none" xmlns:v="https://vecta.io/nano"><style><![CDATA[.B{stroke:#1377e1}.C{fill:#1377e1}.D{stroke-width:6}.E{stroke:#000}.F{stroke-linejoin:round}.G{stroke-width:3}.H{stroke-dasharray:5 5}.I{fill:#000}.J{stroke-width:5}.K{stroke-linecap:round}]]></style><path d="M5.65 150H86v12H5.65c-7.533 0-7.533-12 0-12zm1122.7 12H1048v-12h80.35c7.53 0 7.53 12 0 12zM180 150h80.35v12H180v-12zm174 0h80.35v12H354v-12zm178 0h80.35v12H532v-12zm176 0h80.35v12H708v-12zm174 0h80.35v12H882v-12z" class="C"/><circle cx="132" cy="156" r="46" class="B D"/><path d="M151.5 175.5l-13-13 13 13zm-8.667-23.833a15.17 15.17 0 0 1-1.154 5.804c-.762 1.84-1.88 3.512-3.288 4.92s-3.08 2.526-4.92 3.288a15.17 15.17 0 0 1-11.608 0 15.18 15.18 0 0 1-8.209-8.208 15.17 15.17 0 0 1 3.288-16.529 15.17 15.17 0 0 1 10.725-4.442c4.022 0 7.88 1.598 10.724 4.442a15.17 15.17 0 0 1 4.442 10.725z" class="E F J"/><circle cx="309" cy="156" r="46" class="B D"/><path d="M302.768 169.333h12.461-12.461zM309 132v2.667V132zm16.971 7.029l-1.886 1.886 1.886-1.886zM333 156h-2.667H333zm-45.333 0H285h2.667zm6.248-15.085l-1.886-1.886 1.886 1.886zm5.656 24.514c-1.865-1.865-3.134-4.24-3.648-6.827a13.33 13.33 0 0 1 5.67-13.686 13.33 13.33 0 0 1 14.814 0 13.33 13.33 0 0 1 5.67 13.686c-.514 2.587-1.783 4.962-3.648 6.827l-1.461 1.459c-.835.836-1.498 1.828-1.95 2.919s-.685 2.262-.685 3.444v1.416c0 1.414-.562 2.771-1.562 3.771S310.414 180 309 180s-2.771-.562-3.771-1.562-1.562-2.357-1.562-3.771v-1.416c0-2.387-.95-4.678-2.635-6.363l-1.461-1.459z" class="E F J"/><circle cx="483" cy="156" r="46" class="B D"/><path d="M464.333 139.667a2.33 2.33 0 0 1 2.334-2.334h32.666a2.33 2.33 0 0 1 2.334 2.334v4.666a2.33 2.33 0 0 1-2.334 2.334h-32.666a2.33 2.33 0 0 1-2.334-2.334v-4.666zm0 18.666c0-.619.246-1.212.684-1.65s1.031-.683 1.65-.683h14a2.34 2.34 0 0 1 1.65.683c.437.438.683 1.031.683 1.65v14c0 .619-.246 1.213-.683 1.65s-1.032.684-1.65.684h-14a2.33 2.33 0 0 1-2.334-2.334v-14zm28 0c0-.619.246-1.212.684-1.65s1.031-.683 1.65-.683h4.666c.619 0 1.213.246 1.65.683s.684 1.031.684 1.65v14a2.33 2.33 0 0 1-2.334 2.334h-4.666a2.33 2.33 0 0 1-2.334-2.334v-14z" class="E F J"/><circle cx="660" cy="156" r="46" class="B D"/><path d="M660 141.154c3.017-2.005 7.114-3.237 11.625-3.237s8.608 1.232 11.625 3.237v33.583c-3.017-2.005-7.112-3.237-11.625-3.237s-8.608 1.232-11.625 3.237m0-33.583v33.583-33.583zm0 0c-3.017-2.005-7.115-3.237-11.625-3.237s-8.608 1.232-11.625 3.237v33.583c3.017-2.005 7.114-3.237 11.625-3.237s8.608 1.232 11.625 3.237v-33.583z" class="E F J K"/><circle cx="837" cy="156" r="46" class="B D"/><path d="M823 165.333L813.667 156l9.333-9.333m9.333 28l9.334-37.334-9.334 37.334zm18.667-28l9.333 9.333-9.333 9.333v-18.666z" stroke-width="4" class="E F K"/><circle cx="1005" cy="156" r="46" class="B D"/><path d="M988.667 135v9.333V135zM984 139.667h9.333H984zm7 28V177v-9.333zm-4.667 4.666h9.334-9.334zM1007.33 135l5.34 16 13.33 5-13.33 5-5.34 16-5.33-16-13.333-5 13.333-5 5.33-16z" stroke-width="4" class="E F"/><path d="M131.5 107V17" class="B G H"/><circle cx="131.5" cy="16.5" r="4.5" class="C"/><path d="M159.722 27l-2.772-4.896h-1.188V27h-2.52V14.436h4.716c.972 0 1.8.174 2.484.522.684.336 1.194.798 1.53 1.386.348.576.522 1.224.522 1.944a3.78 3.78 0 0 1-.72 2.25c-.48.66-1.194 1.116-2.142 1.368L162.638 27h-2.916zm-3.96-6.786h2.106c.684 0 1.194-.162 1.53-.486.336-.336.504-.798.504-1.386 0-.576-.168-1.02-.504-1.332-.336-.324-.846-.486-1.53-.486h-2.106v3.69zm18.281 1.584c0 .36-.024.684-.072.972h-7.29c.06.72.312 1.284.756 1.692s.99.612 1.638.612c.936 0 1.602-.402 1.998-1.206h2.718c-.288.96-.84 1.752-1.656 2.376-.816.612-1.818.918-3.006.918-.96 0-1.824-.21-2.592-.63-.756-.432-1.35-1.038-1.782-1.818-.42-.78-.63-1.68-.63-2.7 0-1.032.21-1.938.63-2.718s1.008-1.38 1.764-1.8 1.626-.63 2.61-.63c.948 0 1.794.204 2.538.612a4.22 4.22 0 0 1 1.746 1.746c.42.744.63 1.602.63 2.574zm-2.61-.72c-.012-.648-.246-1.164-.702-1.548-.456-.396-1.014-.594-1.674-.594-.624 0-1.152.192-1.584.576-.42.372-.678.894-.774 1.566h4.734zm8.266 6.084c-.816 0-1.548-.144-2.196-.432-.648-.3-1.164-.702-1.548-1.206a3.07 3.07 0 0 1-.612-1.674h2.538c.048.384.234.702.558.954.336.252.75.378 1.242.378.48 0 .852-.096 1.116-.288.276-.192.414-.438.414-.738 0-.324-.168-.564-.504-.72-.324-.168-.846-.348-1.566-.54-.744-.18-1.356-.366-1.836-.558-.468-.192-.876-.486-1.224-.882-.336-.396-.504-.93-.504-1.602a2.62 2.62 0 0 1 .468-1.512c.324-.456.78-.816 1.368-1.08.6-.264 1.302-.396 2.106-.396 1.188 0 2.136.3 2.844.9.708.588 1.098 1.386 1.17 2.394h-2.412c-.036-.396-.204-.708-.504-.936-.288-.24-.678-.36-1.17-.36-.456 0-.81.084-1.062.252-.24.168-.36.402-.36.702 0 .336.168.594.504.774.336.168.858.342 1.566.522.72.18 1.314.366 1.782.558a3.04 3.04 0 0 1 1.206.9c.348.396.528.924.54 1.584 0 .576-.162 1.092-.486 1.548-.312.456-.768.816-1.368 1.08-.588.252-1.278.378-2.07.378zm15.262-5.364c0 .36-.024.684-.072.972h-7.29c.06.72.312 1.284.756 1.692s.99.612 1.638.612c.936 0 1.602-.402 1.998-1.206h2.718c-.288.96-.84 1.752-1.656 2.376-.816.612-1.818.918-3.006.918-.96 0-1.824-.21-2.592-.63-.756-.432-1.35-1.038-1.782-1.818-.42-.78-.63-1.68-.63-2.7 0-1.032.21-1.938.63-2.718s1.008-1.38 1.764-1.8 1.626-.63 2.61-.63c.948 0 1.794.204 2.538.612a4.22 4.22 0 0 1 1.746 1.746c.42.744.63 1.602.63 2.574zm-2.61-.72c-.012-.648-.246-1.164-.702-1.548-.456-.396-1.014-.594-1.674-.594-.624 0-1.152.192-1.584.576-.42.372-.678.894-.774 1.566h4.734zm3.802.9c0-1.008.198-1.902.594-2.682.408-.78.954-1.38 1.638-1.8.696-.42 1.47-.63 2.322-.63.744 0 1.392.15 1.944.45.564.3 1.014.678 1.35 1.134v-1.422h2.538V27h-2.538v-1.458c-.324.468-.774.858-1.35 1.17-.564.3-1.218.45-1.962.45-.84 0-1.608-.216-2.304-.648-.684-.432-1.23-1.038-1.638-1.818-.396-.792-.594-1.698-.594-2.718zm7.848.036c0-.612-.12-1.134-.36-1.566-.24-.444-.564-.78-.972-1.008a2.55 2.55 0 0 0-1.314-.36 2.55 2.55 0 0 0-1.296.342c-.396.228-.72.564-.972 1.008-.24.432-.36.948-.36 1.548s.12 1.128.36 1.584c.252.444.576.786.972 1.026.408.24.84.36 1.296.36a2.65 2.65 0 0 0 1.314-.342c.408-.24.732-.576.972-1.008.24-.444.36-.972.36-1.584zm7.519-3.438c.324-.528.744-.942 1.26-1.242.528-.3 1.128-.45 1.8-.45v2.646h-.666c-.792 0-1.392.186-1.8.558-.396.372-.594 1.02-.594 1.944V27H209v-9.972h2.52v1.548zm4.109 3.438c0-1.032.21-1.932.63-2.7.42-.78 1.002-1.38 1.746-1.8.744-.432 1.596-.648 2.556-.648 1.236 0 2.256.312 3.06.936.816.612 1.362 1.476 1.638 2.592h-2.718c-.144-.432-.39-.768-.738-1.008-.336-.252-.756-.378-1.26-.378-.72 0-1.29.264-1.71.792-.42.516-.63 1.254-.63 2.214 0 .948.21 1.686.63 2.214.42.516.99.774 1.71.774 1.02 0 1.686-.456 1.998-1.368h2.718c-.276 1.08-.822 1.938-1.638 2.574s-1.836.954-3.06.954c-.96 0-1.812-.21-2.556-.63a4.58 4.58 0 0 1-1.746-1.8c-.42-.78-.63-1.686-.63-2.718zm17.092-5.13c.756 0 1.428.168 2.016.504.588.324 1.044.81 1.368 1.458.336.636.504 1.404.504 2.304V27h-2.52v-5.508c0-.792-.198-1.398-.594-1.818-.396-.432-.936-.648-1.62-.648-.696 0-1.248.216-1.656.648-.396.42-.594 1.026-.594 1.818V27h-2.52V13.68h2.52v4.59c.324-.432.756-.768 1.296-1.008.54-.252 1.14-.378 1.8-.378zm9.926 5.094c0-1.008.198-1.902.594-2.682.408-.78.954-1.38 1.638-1.8.696-.42 1.47-.63 2.322-.63.744 0 1.392.15 1.944.45.564.3 1.014.678 1.35 1.134v-1.422h2.538V27h-2.538v-1.458c-.324.468-.774.858-1.35 1.17-.564.3-1.218.45-1.962.45-.84 0-1.608-.216-2.304-.648-.684-.432-1.23-1.038-1.638-1.818-.396-.792-.594-1.698-.594-2.718zm7.848.036c0-.612-.12-1.134-.36-1.566-.24-.444-.564-.78-.972-1.008a2.55 2.55 0 0 0-1.314-.36 2.55 2.55 0 0 0-1.296.342c-.396.228-.72.564-.972 1.008-.24.432-.36.948-.36 1.548s.12 1.128.36 1.584c.252.444.576.786.972 1.026.408.24.84.36 1.296.36a2.65 2.65 0 0 0 1.314-.342c.408-.24.732-.576.972-1.008.24-.444.36-.972.36-1.584zm10.525-5.13c1.188 0 2.148.378 2.88 1.134.732.744 1.098 1.788 1.098 3.132V27h-2.52v-5.508c0-.792-.198-1.398-.594-1.818-.396-.432-.936-.648-1.62-.648-.696 0-1.248.216-1.656.648-.396.42-.594 1.026-.594 1.818V27h-2.52v-9.972h2.52v1.242c.336-.432.762-.768 1.278-1.008a3.96 3.96 0 0 1 1.728-.378zm5.726 5.094c0-1.008.198-1.902.594-2.682.408-.78.96-1.38 1.656-1.8s1.47-.63 2.322-.63a4.16 4.16 0 0 1 1.854.432c.588.276 1.056.648 1.404 1.116V13.68h2.556V27h-2.556v-1.476c-.312.492-.75.888-1.314 1.188s-1.218.45-1.962.45c-.84 0-1.608-.216-2.304-.648s-1.248-1.038-1.656-1.818c-.396-.792-.594-1.698-.594-2.718zm7.848.036c0-.612-.12-1.134-.36-1.566-.24-.444-.564-.78-.972-1.008a2.55 2.55 0 0 0-1.314-.36 2.55 2.55 0 0 0-1.296.342c-.396.228-.72.564-.972 1.008-.24.432-.36.948-.36 1.548s.12 1.128.36 1.584c.252.444.576.786.972 1.026.408.24.84.36 1.296.36a2.65 2.65 0 0 0 1.314-.342c.408-.24.732-.576.972-1.008.24-.444.36-.972.36-1.584zM160.946 42.606h-5.004L155.114 45h-2.646l4.518-12.582h2.934L164.438 45h-2.664l-.828-2.394zm-.684-2.016l-1.818-5.256-1.818 5.256h3.636zm11.391-5.706c1.188 0 2.148.378 2.88 1.134.732.744 1.098 1.788 1.098 3.132V45h-2.52v-5.508c0-.792-.198-1.398-.594-1.818-.396-.432-.936-.648-1.62-.648-.696 0-1.248.216-1.656.648-.396.42-.594 1.026-.594 1.818V45h-2.52v-9.972h2.52v1.242c.336-.432.762-.768 1.278-1.008a3.96 3.96 0 0 1 1.728-.378zm5.726 5.094c0-1.008.198-1.902.594-2.682.408-.78.954-1.38 1.638-1.8.696-.42 1.47-.63 2.322-.63.744 0 1.392.15 1.944.45.564.3 1.014.678 1.35 1.134v-1.422h2.538V45h-2.538v-1.458c-.324.468-.774.858-1.35 1.17-.564.3-1.218.45-1.962.45-.84 0-1.608-.216-2.304-.648-.684-.432-1.23-1.038-1.638-1.818-.396-.792-.594-1.698-.594-2.718zm7.848.036c0-.612-.12-1.134-.36-1.566-.24-.444-.564-.78-.972-1.008a2.55 2.55 0 0 0-1.314-.36 2.55 2.55 0 0 0-1.296.342c-.396.228-.72.564-.972 1.008-.24.432-.36.948-.36 1.548s.12 1.128.36 1.584c.252.444.576.786.972 1.026.408.24.84.36 1.296.36a2.65 2.65 0 0 0 1.314-.342c.408-.24.732-.576.972-1.008.24-.444.36-.972.36-1.584zm7.519-8.334V45h-2.52V31.68h2.52zm12.03 3.348l-6.174 14.688h-2.682l2.16-4.968-3.996-9.72h2.826l2.574 6.966 2.61-6.966h2.682zm5.175 10.134c-.816 0-1.548-.144-2.196-.432-.648-.3-1.164-.702-1.548-1.206a3.07 3.07 0 0 1-.612-1.674h2.538c.048.384.234.702.558.954.336.252.75.378 1.242.378.48 0 .852-.096 1.116-.288.276-.192.414-.438.414-.738 0-.324-.168-.564-.504-.72-.324-.168-.846-.348-1.566-.54-.744-.18-1.356-.366-1.836-.558-.468-.192-.876-.486-1.224-.882-.336-.396-.504-.93-.504-1.602a2.62 2.62 0 0 1 .468-1.512c.324-.456.78-.816 1.368-1.08.6-.264 1.302-.396 2.106-.396 1.188 0 2.136.3 2.844.9.708.588 1.098 1.386 1.17 2.394h-2.412c-.036-.396-.204-.708-.504-.936-.288-.24-.678-.36-1.17-.36-.456 0-.81.084-1.062.252-.24.168-.36.402-.36.702 0 .336.168.594.504.774.336.168.858.342 1.566.522.72.18 1.314.366 1.782.558a3.04 3.04 0 0 1 1.206.9c.348.396.528.924.54 1.584 0 .576-.162 1.092-.486 1.548-.312.456-.768.816-1.368 1.08-.588.252-1.278.378-2.07.378zm7.27-11.322c-.444 0-.816-.138-1.116-.414-.288-.288-.432-.642-.432-1.062s.144-.768.432-1.044c.3-.288.672-.432 1.116-.432s.81.144 1.098.432c.3.276.45.624.45 1.044s-.15.774-.45 1.062c-.288.276-.654.414-1.098.414zm1.242 1.188V45h-2.52v-9.972h2.52zm6.306 10.134c-.816 0-1.548-.144-2.196-.432-.648-.3-1.164-.702-1.548-1.206a3.07 3.07 0 0 1-.612-1.674h2.538c.048.384.234.702.558.954.336.252.75.378 1.242.378.48 0 .852-.096 1.116-.288.276-.192.414-.438.414-.738 0-.324-.168-.564-.504-.72-.324-.168-.846-.348-1.566-.54-.744-.18-1.356-.366-1.836-.558-.468-.192-.876-.486-1.224-.882-.336-.396-.504-.93-.504-1.602a2.62 2.62 0 0 1 .468-1.512c.324-.456.78-.816 1.368-1.08.6-.264 1.302-.396 2.106-.396 1.188 0 2.136.3 2.844.9.708.588 1.098 1.386 1.17 2.394h-2.412c-.036-.396-.204-.708-.504-.936-.288-.24-.678-.36-1.17-.36-.456 0-.81.084-1.062.252-.24.168-.36.402-.36.702 0 .336.168.594.504.774.336.168.858.342 1.566.522.72.18 1.314.366 1.782.558a3.04 3.04 0 0 1 1.206.9c.348.396.528.924.54 1.584 0 .576-.162 1.092-.486 1.548-.312.456-.768.816-1.368 1.08-.588.252-1.278.378-2.07.378z" class="I"/><path d="M481.5 107V17" class="B G H"/><circle cx="481.5" cy="16.5" r="4.5" class="C"/><path d="M507.634 14.436c1.32 0 2.478.258 3.474.774 1.008.516 1.782 1.254 2.322 2.214.552.948.828 2.052.828 3.312s-.276 2.364-.828 3.312c-.54.936-1.314 1.662-2.322 2.178-.996.516-2.154.774-3.474.774h-4.392V14.436h4.392zm-.09 10.422c1.32 0 2.34-.36 3.06-1.08s1.08-1.734 1.08-3.042-.36-2.328-1.08-3.06c-.72-.744-1.74-1.116-3.06-1.116h-1.782v8.298h1.782zm17.87-3.06c0 .36-.024.684-.072.972h-7.29c.06.72.312 1.284.756 1.692s.99.612 1.638.612c.936 0 1.602-.402 1.998-1.206h2.718c-.288.96-.84 1.752-1.656 2.376-.816.612-1.818.918-3.006.918-.96 0-1.824-.21-2.592-.63-.756-.432-1.35-1.038-1.782-1.818-.42-.78-.63-1.68-.63-2.7 0-1.032.21-1.938.63-2.718s1.008-1.38 1.764-1.8 1.626-.63 2.61-.63c.948 0 1.794.204 2.538.612a4.22 4.22 0 0 1 1.746 1.746c.42.744.63 1.602.63 2.574zm-2.61-.72c-.012-.648-.246-1.164-.702-1.548-.456-.396-1.014-.594-1.674-.594-.624 0-1.152.192-1.584.576-.42.372-.678.894-.774 1.566h4.734zm8.266 6.084c-.816 0-1.548-.144-2.196-.432-.648-.3-1.164-.702-1.548-1.206a3.07 3.07 0 0 1-.612-1.674h2.538c.048.384.234.702.558.954.336.252.75.378 1.242.378.48 0 .852-.096 1.116-.288.276-.192.414-.438.414-.738 0-.324-.168-.564-.504-.72-.324-.168-.846-.348-1.566-.54-.744-.18-1.356-.366-1.836-.558-.468-.192-.876-.486-1.224-.882-.336-.396-.504-.93-.504-1.602a2.62 2.62 0 0 1 .468-1.512c.324-.456.78-.816 1.368-1.08.6-.264 1.302-.396 2.106-.396 1.188 0 2.136.3 2.844.9.708.588 1.098 1.386 1.17 2.394h-2.412c-.036-.396-.204-.708-.504-.936-.288-.24-.678-.36-1.17-.36-.456 0-.81.084-1.062.252-.24.168-.36.402-.36.702 0 .336.168.594.504.774.336.168.858.342 1.566.522.72.18 1.314.366 1.782.558a3.04 3.04 0 0 1 1.206.9c.348.396.528.924.54 1.584 0 .576-.162 1.092-.486 1.548-.312.456-.768.816-1.368 1.08-.588.252-1.278.378-2.07.378zm7.27-11.322c-.444 0-.816-.138-1.116-.414-.288-.288-.432-.642-.432-1.062s.144-.768.432-1.044c.3-.288.672-.432 1.116-.432s.81.144 1.098.432c.3.276.45.624.45 1.044s-.15.774-.45 1.062c-.288.276-.654.414-1.098.414zm1.242 1.188V27h-2.52v-9.972h2.52zm6.396-.162c.744 0 1.398.15 1.962.45.564.288 1.008.666 1.332 1.134v-1.422h2.538v10.044c0 .924-.186 1.746-.558 2.466-.372.732-.93 1.308-1.674 1.728-.744.432-1.644.648-2.7.648-1.416 0-2.58-.33-3.492-.99-.9-.66-1.41-1.56-1.53-2.7h2.502c.132.456.414.816.846 1.08.444.276.978.414 1.602.414.732 0 1.326-.222 1.782-.666.456-.432.684-1.092.684-1.98v-1.548c-.324.468-.774.858-1.35 1.17-.564.312-1.212.468-1.944.468-.84 0-1.608-.216-2.304-.648s-1.248-1.038-1.656-1.818c-.396-.792-.594-1.698-.594-2.718 0-1.008.198-1.902.594-2.682.408-.78.954-1.38 1.638-1.8.696-.42 1.47-.63 2.322-.63zm3.294 5.148c0-.612-.12-1.134-.36-1.566-.24-.444-.564-.78-.972-1.008a2.55 2.55 0 0 0-1.314-.36 2.55 2.55 0 0 0-1.296.342c-.396.228-.72.564-.972 1.008-.24.432-.36.948-.36 1.548s.12 1.128.36 1.584c.252.444.576.786.972 1.026.408.24.84.36 1.296.36a2.65 2.65 0 0 0 1.314-.342c.408-.24.732-.576.972-1.008.24-.444.36-.972.36-1.584zm10.525-5.13c1.188 0 2.148.378 2.88 1.134.732.744 1.098 1.788 1.098 3.132V27h-2.52v-5.508c0-.792-.198-1.398-.594-1.818-.396-.432-.936-.648-1.62-.648-.696 0-1.248.216-1.656.648-.396.42-.594 1.026-.594 1.818V27h-2.52v-9.972h2.52v1.242c.336-.432.762-.768 1.278-1.008a3.96 3.96 0 0 1 1.728-.378zm7.653-1.044c-.444 0-.816-.138-1.116-.414-.288-.288-.432-.642-.432-1.062s.144-.768.432-1.044c.3-.288.672-.432 1.116-.432s.81.144 1.098.432c.3.276.45.624.45 1.044s-.15.774-.45 1.062c-.288.276-.654.414-1.098.414zm1.242 1.188V27h-2.52v-9.972h2.52zm8.015-.144c1.188 0 2.148.378 2.88 1.134.732.744 1.098 1.788 1.098 3.132V27h-2.52v-5.508c0-.792-.198-1.398-.594-1.818-.396-.432-.936-.648-1.62-.648-.696 0-1.248.216-1.656.648-.396.42-.594 1.026-.594 1.818V27h-2.52v-9.972h2.52v1.242c.336-.432.762-.768 1.278-1.008a3.96 3.96 0 0 1 1.728-.378zm10.281-.018c.744 0 1.398.15 1.962.45.564.288 1.008.666 1.332 1.134v-1.422h2.538v10.044c0 .924-.186 1.746-.558 2.466-.372.732-.93 1.308-1.674 1.728-.744.432-1.644.648-2.7.648-1.416 0-2.58-.33-3.492-.99-.9-.66-1.41-1.56-1.53-2.7h2.502c.132.456.414.816.846 1.08.444.276.978.414 1.602.414.732 0 1.326-.222 1.782-.666.456-.432.684-1.092.684-1.98v-1.548c-.324.468-.774.858-1.35 1.17-.564.312-1.212.468-1.944.468-.84 0-1.608-.216-2.304-.648s-1.248-1.038-1.656-1.818c-.396-.792-.594-1.698-.594-2.718 0-1.008.198-1.902.594-2.682.408-.78.954-1.38 1.638-1.8.696-.42 1.47-.63 2.322-.63zm3.294 5.148c0-.612-.12-1.134-.36-1.566-.24-.444-.564-.78-.972-1.008a2.55 2.55 0 0 0-1.314-.36 2.55 2.55 0 0 0-1.296.342c-.396.228-.72.564-.972 1.008-.24.432-.36.948-.36 1.548s.12 1.128.36 1.584c.252.444.576.786.972 1.026.408.24.84.36 1.296.36a2.65 2.65 0 0 0 1.314-.342c.408-.24.732-.576.972-1.008.24-.444.36-.972.36-1.584z" class="I"/><path d="M836.5 107V17" class="B G H"/><circle cx="836.5" cy="16.5" r="4.5" class="C"/><path d="M862.634 14.436c1.32 0 2.478.258 3.474.774 1.008.516 1.782 1.254 2.322 2.214.552.948.828 2.052.828 3.312s-.276 2.364-.828 3.312c-.54.936-1.314 1.662-2.322 2.178-.996.516-2.154.774-3.474.774h-4.392V14.436h4.392zm-.09 10.422c1.32 0 2.34-.36 3.06-1.08s1.08-1.734 1.08-3.042-.36-2.328-1.08-3.06c-.72-.744-1.74-1.116-3.06-1.116h-1.782v8.298h1.782zm17.87-3.06c0 .36-.024.684-.072.972h-7.29c.06.72.312 1.284.756 1.692s.99.612 1.638.612c.936 0 1.602-.402 1.998-1.206h2.718c-.288.96-.84 1.752-1.656 2.376-.816.612-1.818.918-3.006.918-.96 0-1.824-.21-2.592-.63-.756-.432-1.35-1.038-1.782-1.818-.42-.78-.63-1.68-.63-2.7 0-1.032.21-1.938.63-2.718s1.008-1.38 1.764-1.8 1.626-.63 2.61-.63c.948 0 1.794.204 2.538.612a4.22 4.22 0 0 1 1.746 1.746c.42.744.63 1.602.63 2.574zm-2.61-.72c-.012-.648-.246-1.164-.702-1.548-.456-.396-1.014-.594-1.674-.594-.624 0-1.152.192-1.584.576-.42.372-.678.894-.774 1.566h4.734zm8.608 3.6l2.52-7.65h2.682L887.924 27h-3.06l-3.672-9.972h2.7l2.52 7.65zm15.887-2.88c0 .36-.024.684-.072.972h-7.29c.06.72.312 1.284.756 1.692s.99.612 1.638.612c.936 0 1.602-.402 1.998-1.206h2.718c-.288.96-.84 1.752-1.656 2.376-.816.612-1.818.918-3.006.918-.96 0-1.824-.21-2.592-.63-.756-.432-1.35-1.038-1.782-1.818-.42-.78-.63-1.68-.63-2.7 0-1.032.21-1.938.63-2.718s1.008-1.38 1.764-1.8 1.626-.63 2.61-.63c.948 0 1.794.204 2.538.612a4.22 4.22 0 0 1 1.746 1.746c.42.744.63 1.602.63 2.574zm-2.61-.72c-.012-.648-.246-1.164-.702-1.548-.456-.396-1.014-.594-1.674-.594-.624 0-1.152.192-1.584.576-.42.372-.678.894-.774 1.566h4.734zm6.969-7.398V27h-2.52V13.68h2.52zm6.918 13.482c-.96 0-1.824-.21-2.592-.63-.768-.432-1.374-1.038-1.818-1.818-.432-.78-.648-1.68-.648-2.7s.222-1.92.666-2.7a4.69 4.69 0 0 1 1.854-1.8c.78-.432 1.65-.648 2.61-.648s1.83.216 2.61.648c.78.42 1.392 1.02 1.836 1.8.456.78.684 1.68.684 2.7s-.234 1.92-.702 2.7a4.78 4.78 0 0 1-1.872 1.818c-.78.42-1.656.63-2.628.63zm0-2.196c.456 0 .882-.108 1.278-.324.408-.228.732-.564.972-1.008s.36-.984.36-1.62c0-.948-.252-1.674-.756-2.178a2.41 2.41 0 0 0-1.818-.774 2.41 2.41 0 0 0-1.818.774c-.48.504-.72 1.23-.72 2.178s.234 1.68.702 2.196c.48.504 1.08.756 1.8.756zm9.571-6.498c.324-.456.768-.834 1.332-1.134.576-.312 1.23-.468 1.962-.468.852 0 1.62.21 2.304.63.696.42 1.242 1.02 1.638 1.8.408.768.612 1.662.612 2.682s-.204 1.926-.612 2.718c-.396.78-.942 1.386-1.638 1.818-.684.432-1.452.648-2.304.648-.732 0-1.38-.15-1.944-.45-.552-.3-1.002-.678-1.35-1.134v6.174h-2.52V17.028h2.52v1.44zm5.274 3.51c0-.6-.126-1.116-.378-1.548-.24-.444-.564-.78-.972-1.008a2.55 2.55 0 0 0-1.296-.342c-.456 0-.888.12-1.296.36-.396.228-.72.564-.972 1.008-.24.444-.36.966-.36 1.566s.12 1.122.36 1.566c.252.444.576.786.972 1.026.408.228.84.342 1.296.342.468 0 .9-.12 1.296-.36.408-.24.732-.582.972-1.026.252-.444.378-.972.378-1.584zm16.789-5.094c1.224 0 2.208.378 2.952 1.134.756.744 1.134 1.788 1.134 3.132V27h-2.52v-5.508c0-.78-.198-1.374-.594-1.782-.396-.42-.936-.63-1.62-.63s-1.23.21-1.638.63c-.396.408-.594 1.002-.594 1.782V27h-2.52v-5.508c0-.78-.198-1.374-.594-1.782-.396-.42-.936-.63-1.62-.63-.696 0-1.248.21-1.656.63-.396.408-.594 1.002-.594 1.782V27h-2.52v-9.972h2.52v1.206a3.37 3.37 0 0 1 1.242-.99c.516-.24 1.08-.36 1.692-.36.78 0 1.476.168 2.088.504a3.41 3.41 0 0 1 1.422 1.404c.324-.576.792-1.038 1.404-1.386a4.07 4.07 0 0 1 2.016-.522zm15.747 4.914c0 .36-.024.684-.072.972h-7.29c.06.72.312 1.284.756 1.692s.99.612 1.638.612c.936 0 1.602-.402 1.998-1.206h2.718c-.288.96-.84 1.752-1.656 2.376-.816.612-1.818.918-3.006.918-.96 0-1.824-.21-2.592-.63-.756-.432-1.35-1.038-1.782-1.818-.42-.78-.63-1.68-.63-2.7 0-1.032.21-1.938.63-2.718s1.008-1.38 1.764-1.8 1.626-.63 2.61-.63c.948 0 1.794.204 2.538.612a4.22 4.22 0 0 1 1.746 1.746c.42.744.63 1.602.63 2.574zm-2.61-.72c-.012-.648-.246-1.164-.702-1.548-.456-.396-1.014-.594-1.674-.594-.624 0-1.152.192-1.584.576-.42.372-.678.894-.774 1.566h4.734zm9.976-4.194c1.188 0 2.148.378 2.88 1.134.732.744 1.098 1.788 1.098 3.132V27h-2.52v-5.508c0-.792-.198-1.398-.594-1.818-.396-.432-.936-.648-1.62-.648-.696 0-1.248.216-1.656.648-.396.42-.594 1.026-.594 1.818V27h-2.52v-9.972h2.52v1.242c.336-.432.762-.768 1.278-1.008a3.96 3.96 0 0 1 1.728-.378zm9.308 2.214v4.824c0 .336.078.582.234.738.168.144.444.216.828.216h1.17V27h-1.584c-2.124 0-3.186-1.032-3.186-3.096v-4.806h-1.188v-2.07h1.188v-2.466h2.538v2.466h2.232v2.07h-2.232z" class="I"/><path d="M308.5 205v90" class="B G H"/><circle cx="308.5" cy="295.5" r="4.5" transform="rotate(180 308.5 295.5)" class="C"/><path d="M180.746 258.324c0 .672-.162 1.302-.486 1.89-.312.588-.81 1.062-1.494 1.422-.672.36-1.524.54-2.556.54h-2.106V267h-2.52v-12.564h4.626c.972 0 1.8.168 2.484.504s1.194.798 1.53 1.386c.348.588.522 1.254.522 1.998zm-4.644 1.818c.696 0 1.212-.156 1.548-.468.336-.324.504-.774.504-1.35 0-1.224-.684-1.836-2.052-1.836h-1.998v3.654h1.998zm8.953-6.462V267h-2.52v-13.32h2.52zm1.842 8.298c0-1.008.198-1.902.594-2.682.408-.78.954-1.38 1.638-1.8.696-.42 1.47-.63 2.322-.63.744 0 1.392.15 1.944.45.564.3 1.014.678 1.35 1.134v-1.422h2.538V267h-2.538v-1.458c-.324.468-.774.858-1.35 1.17-.564.3-1.218.45-1.962.45-.84 0-1.608-.216-2.304-.648-.684-.432-1.23-1.038-1.638-1.818-.396-.792-.594-1.698-.594-2.718zm7.848.036c0-.612-.12-1.134-.36-1.566-.24-.444-.564-.78-.972-1.008a2.55 2.55 0 0 0-1.314-.36 2.55 2.55 0 0 0-1.296.342c-.396.228-.72.564-.972 1.008-.24.432-.36.948-.36 1.548s.12 1.128.36 1.584c.252.444.576.786.972 1.026.408.24.84.36 1.296.36a2.65 2.65 0 0 0 1.314-.342c.408-.24.732-.576.972-1.008.24-.444.36-.972.36-1.584zm10.525-5.13c1.188 0 2.148.378 2.88 1.134.732.744 1.098 1.788 1.098 3.132V267h-2.52v-5.508c0-.792-.198-1.398-.594-1.818-.396-.432-.936-.648-1.62-.648-.696 0-1.248.216-1.656.648-.396.42-.594 1.026-.594 1.818V267h-2.52v-9.972h2.52v1.242c.336-.432.762-.768 1.278-1.008a3.96 3.96 0 0 1 1.728-.378zm11.9 0c1.188 0 2.148.378 2.88 1.134.732.744 1.098 1.788 1.098 3.132V267h-2.52v-5.508c0-.792-.198-1.398-.594-1.818-.396-.432-.936-.648-1.62-.648-.696 0-1.248.216-1.656.648-.396.42-.594 1.026-.594 1.818V267h-2.52v-9.972h2.52v1.242c.336-.432.762-.768 1.278-1.008a3.96 3.96 0 0 1 1.728-.378zm7.653-1.044c-.444 0-.816-.138-1.116-.414-.288-.288-.432-.642-.432-1.062s.144-.768.432-1.044c.3-.288.672-.432 1.116-.432s.81.144 1.098.432c.3.276.45.624.45 1.044s-.15.774-.45 1.062c-.288.276-.654.414-1.098.414zm1.242 1.188V267h-2.52v-9.972h2.52zm8.016-.144c1.188 0 2.148.378 2.88 1.134.732.744 1.098 1.788 1.098 3.132V267h-2.52v-5.508c0-.792-.198-1.398-.594-1.818-.396-.432-.936-.648-1.62-.648-.696 0-1.248.216-1.656.648-.396.42-.594 1.026-.594 1.818V267h-2.52v-9.972h2.52v1.242c.336-.432.762-.768 1.278-1.008a3.96 3.96 0 0 1 1.728-.378zm10.28-.018c.744 0 1.398.15 1.962.45.564.288 1.008.666 1.332 1.134v-1.422h2.538v10.044c0 .924-.186 1.746-.558 2.466-.372.732-.93 1.308-1.674 1.728-.744.432-1.644.648-2.7.648-1.416 0-2.58-.33-3.492-.99-.9-.66-1.41-1.56-1.53-2.7h2.502c.132.456.414.816.846 1.08.444.276.978.414 1.602.414.732 0 1.326-.222 1.782-.666.456-.432.684-1.092.684-1.98v-1.548c-.324.468-.774.858-1.35 1.17-.564.312-1.212.468-1.944.468-.84 0-1.608-.216-2.304-.648s-1.248-1.038-1.656-1.818c-.396-.792-.594-1.698-.594-2.718 0-1.008.198-1.902.594-2.682.408-.78.954-1.38 1.638-1.8.696-.42 1.47-.63 2.322-.63zm3.294 5.148c0-.612-.12-1.134-.36-1.566-.24-.444-.564-.78-.972-1.008a2.55 2.55 0 0 0-1.314-.36 2.55 2.55 0 0 0-1.296.342c-.396.228-.72.564-.972 1.008-.24.432-.36.948-.36 1.548s.12 1.128.36 1.584c.252.444.576.786.972 1.026.408.24.84.36 1.296.36a2.65 2.65 0 0 0 1.314-.342c.408-.24.732-.576.972-1.008.24-.444.36-.972.36-1.584zm8.64-.036c0-1.008.198-1.902.594-2.682.408-.78.954-1.38 1.638-1.8.696-.42 1.47-.63 2.322-.63.744 0 1.392.15 1.944.45.564.3 1.014.678 1.35 1.134v-1.422h2.538V267h-2.538v-1.458c-.324.468-.774.858-1.35 1.17-.564.3-1.218.45-1.962.45-.84 0-1.608-.216-2.304-.648-.684-.432-1.23-1.038-1.638-1.818-.396-.792-.594-1.698-.594-2.718zm7.848.036c0-.612-.12-1.134-.36-1.566-.24-.444-.564-.78-.972-1.008a2.55 2.55 0 0 0-1.314-.36 2.55 2.55 0 0 0-1.296.342c-.396.228-.72.564-.972 1.008-.24.432-.36.948-.36 1.548s.12 1.128.36 1.584c.252.444.576.786.972 1.026.408.24.84.36 1.296.36a2.65 2.65 0 0 0 1.314-.342c.408-.24.732-.576.972-1.008.24-.444.36-.972.36-1.584zm10.525-5.13c1.188 0 2.148.378 2.88 1.134.732.744 1.098 1.788 1.098 3.132V267h-2.52v-5.508c0-.792-.198-1.398-.594-1.818-.396-.432-.936-.648-1.62-.648-.696 0-1.248.216-1.656.648-.396.42-.594 1.026-.594 1.818V267h-2.52v-9.972h2.52v1.242c.336-.432.762-.768 1.278-1.008a3.96 3.96 0 0 1 1.728-.378zm5.727 5.094c0-1.008.198-1.902.594-2.682.408-.78.96-1.38 1.656-1.8s1.47-.63 2.322-.63a4.16 4.16 0 0 1 1.854.432c.588.276 1.056.648 1.404 1.116v-4.734h2.556V267h-2.556v-1.476c-.312.492-.75.888-1.314 1.188s-1.218.45-1.962.45c-.84 0-1.608-.216-2.304-.648s-1.248-1.038-1.656-1.818c-.396-.792-.594-1.698-.594-2.718zm7.848.036c0-.612-.12-1.134-.36-1.566-.24-.444-.564-.78-.972-1.008a2.55 2.55 0 0 0-1.314-.36 2.55 2.55 0 0 0-1.296.342c-.396.228-.72.564-.972 1.008-.24.432-.36.948-.36 1.548s.12 1.128.36 1.584c.252.444.576.786.972 1.026.408.24.84.36 1.296.36a2.65 2.65 0 0 0 1.314-.342c.408-.24.732-.576.972-1.008.24-.444.36-.972.36-1.584zm-69.272 23.112c-.876 0-1.668-.15-2.376-.45-.696-.3-1.248-.732-1.656-1.296s-.618-1.23-.63-1.998h2.7c.036.516.216.924.54 1.224.336.3.792.45 1.368.45.588 0 1.05-.138 1.386-.414a1.4 1.4 0 0 0 .504-1.116c0-.372-.114-.678-.342-.918a2.29 2.29 0 0 0-.864-.558c-.336-.144-.804-.3-1.404-.468-.816-.24-1.482-.474-1.998-.702-.504-.24-.942-.594-1.314-1.062-.36-.48-.54-1.116-.54-1.908 0-.744.186-1.392.558-1.944s.894-.972 1.566-1.26c.672-.3 1.44-.45 2.304-.45 1.296 0 2.346.318 3.15.954.816.624 1.266 1.5 1.35 2.628h-2.772a1.4 1.4 0 0 0-.558-1.062c-.336-.288-.786-.432-1.35-.432-.492 0-.888.126-1.188.378-.288.252-.432.618-.432 1.098 0 .336.108.618.324.846.228.216.504.396.828.54.336.132.804.288 1.404.468.816.24 1.482.48 1.998.72s.96.6 1.332 1.08.558 1.11.558 1.89c0 .672-.174 1.296-.522 1.872s-.858 1.038-1.53 1.386c-.672.336-1.47.504-2.394.504zm9.564-8.028v4.824c0 .336.078.582.234.738.168.144.444.216.828.216h1.17V285h-1.584c-2.124 0-3.186-1.032-3.186-3.096v-4.806h-1.188v-2.07h1.188v-2.466h2.538v2.466h2.232v2.07h-2.232zm6.565-.522c.324-.528.744-.942 1.26-1.242.528-.3 1.128-.45 1.8-.45v2.646h-.666c-.792 0-1.392.186-1.8.558-.396.372-.594 1.02-.594 1.944V285h-2.52v-9.972h2.52v1.548zm4.109 3.402c0-1.008.198-1.902.594-2.682.408-.78.954-1.38 1.638-1.8.696-.42 1.47-.63 2.322-.63.744 0 1.392.15 1.944.45.564.3 1.014.678 1.35 1.134v-1.422h2.538V285h-2.538v-1.458c-.324.468-.774.858-1.35 1.17-.564.3-1.218.45-1.962.45-.84 0-1.608-.216-2.304-.648-.684-.432-1.23-1.038-1.638-1.818-.396-.792-.594-1.698-.594-2.718zm7.848.036c0-.612-.12-1.134-.36-1.566-.24-.444-.564-.78-.972-1.008a2.55 2.55 0 0 0-1.314-.36 2.55 2.55 0 0 0-1.296.342c-.396.228-.72.564-.972 1.008-.24.432-.36.948-.36 1.548s.12 1.128.36 1.584c.252.444.576.786.972 1.026.408.24.84.36 1.296.36a2.65 2.65 0 0 0 1.314-.342c.408-.24.732-.576.972-1.008.24-.444.36-.972.36-1.584zm7.933-2.916v4.824c0 .336.078.582.234.738.168.144.444.216.828.216h1.17V285h-1.584c-2.124 0-3.186-1.032-3.186-3.096v-4.806h-1.188v-2.07h1.188v-2.466h2.538v2.466h2.232v2.07h-2.232zm13.315 2.7c0 .36-.024.684-.072.972h-7.29c.06.72.312 1.284.756 1.692s.99.612 1.638.612c.936 0 1.602-.402 1.998-1.206h2.718c-.288.96-.84 1.752-1.656 2.376-.816.612-1.818.918-3.006.918-.96 0-1.824-.21-2.592-.63-.756-.432-1.35-1.038-1.782-1.818-.42-.78-.63-1.68-.63-2.7 0-1.032.21-1.938.63-2.718s1.008-1.38 1.764-1.8 1.626-.63 2.61-.63c.948 0 1.794.204 2.538.612a4.22 4.22 0 0 1 1.746 1.746c.42.744.63 1.602.63 2.574zm-2.61-.72c-.012-.648-.246-1.164-.702-1.548-.456-.396-1.014-.594-1.674-.594-.624 0-1.152.192-1.584.576-.42.372-.678.894-.774 1.566h4.734zm8.355-4.212c.744 0 1.398.15 1.962.45.564.288 1.008.666 1.332 1.134v-1.422h2.538v10.044c0 .924-.186 1.746-.558 2.466-.372.732-.93 1.308-1.674 1.728-.744.432-1.644.648-2.7.648-1.416 0-2.58-.33-3.492-.99-.9-.66-1.41-1.56-1.53-2.7h2.502c.132.456.414.816.846 1.08.444.276.978.414 1.602.414.732 0 1.326-.222 1.782-.666.456-.432.684-1.092.684-1.98v-1.548c-.324.468-.774.858-1.35 1.17-.564.312-1.212.468-1.944.468-.84 0-1.608-.216-2.304-.648s-1.248-1.038-1.656-1.818c-.396-.792-.594-1.698-.594-2.718 0-1.008.198-1.902.594-2.682.408-.78.954-1.38 1.638-1.8.696-.42 1.47-.63 2.322-.63zm3.294 5.148c0-.612-.12-1.134-.36-1.566-.24-.444-.564-.78-.972-1.008a2.55 2.55 0 0 0-1.314-.36 2.55 2.55 0 0 0-1.296.342c-.396.228-.72.564-.972 1.008-.24.432-.36.948-.36 1.548s.12 1.128.36 1.584c.252.444.576.786.972 1.026.408.24.84.36 1.296.36a2.65 2.65 0 0 0 1.314-.342c.408-.24.732-.576.972-1.008.24-.444.36-.972.36-1.584zm14.54-4.986l-6.174 14.688h-2.682l2.16-4.968-3.996-9.72h2.826l2.574 6.966 2.61-6.966h2.682z" class="I"/><path d="M662.5 205v90" class="B G H"/><circle cx="662.5" cy="295.5" r="4.5" transform="rotate(180 662.5 295.5)" class="C"/><path d="M488.409 260.7c0-1.236.276-2.34.828-3.312.564-.984 1.326-1.746 2.286-2.286.972-.552 2.058-.828 3.258-.828 1.404 0 2.634.36 3.69 1.08s1.794 1.716 2.214 2.988h-2.898c-.288-.6-.696-1.05-1.224-1.35-.516-.3-1.116-.45-1.8-.45-.732 0-1.386.174-1.962.522-.564.336-1.008.816-1.332 1.44-.312.624-.468 1.356-.468 2.196 0 .828.156 1.56.468 2.196.324.624.768 1.11 1.332 1.458.576.336 1.23.504 1.962.504.684 0 1.284-.15 1.8-.45.528-.312.936-.768 1.224-1.368h2.898c-.42 1.284-1.158 2.286-2.214 3.006-1.044.708-2.274 1.062-3.69 1.062-1.2 0-2.286-.27-3.258-.81-.96-.552-1.722-1.314-2.286-2.286-.552-.972-.828-2.076-.828-3.312zm18.857 6.462c-.96 0-1.824-.21-2.592-.63-.768-.432-1.374-1.038-1.818-1.818-.432-.78-.648-1.68-.648-2.7s.222-1.92.666-2.7a4.69 4.69 0 0 1 1.854-1.8c.78-.432 1.65-.648 2.61-.648s1.83.216 2.61.648c.78.42 1.392 1.02 1.836 1.8.456.78.684 1.68.684 2.7s-.234 1.92-.702 2.7a4.78 4.78 0 0 1-1.872 1.818c-.78.42-1.656.63-2.628.63zm0-2.196c.456 0 .882-.108 1.278-.324.408-.228.732-.564.972-1.008s.36-.984.36-1.62c0-.948-.252-1.674-.756-2.178a2.41 2.41 0 0 0-1.818-.774 2.41 2.41 0 0 0-1.818.774c-.48.504-.72 1.23-.72 2.178s.234 1.68.702 2.196c.48.504 1.08.756 1.8.756zm12.576-8.082c1.188 0 2.148.378 2.88 1.134.732.744 1.098 1.788 1.098 3.132V267h-2.52v-5.508c0-.792-.198-1.398-.594-1.818-.396-.432-.936-.648-1.62-.648-.696 0-1.248.216-1.656.648-.396.42-.594 1.026-.594 1.818V267h-2.52v-9.972h2.52v1.242c.336-.432.762-.768 1.278-1.008a3.96 3.96 0 0 1 1.728-.378zm9.309 2.214v4.824c0 .336.078.582.234.738.168.144.444.216.828.216h1.17V267h-1.584c-2.124 0-3.186-1.032-3.186-3.096v-4.806h-1.188v-2.07h1.188v-2.466h2.538v2.466h2.232v2.07h-2.232zm13.314 2.7c0 .36-.024.684-.072.972h-7.29c.06.72.312 1.284.756 1.692s.99.612 1.638.612c.936 0 1.602-.402 1.998-1.206h2.718c-.288.96-.84 1.752-1.656 2.376-.816.612-1.818.918-3.006.918-.96 0-1.824-.21-2.592-.63-.756-.432-1.35-1.038-1.782-1.818-.42-.78-.63-1.68-.63-2.7 0-1.032.21-1.938.63-2.718s1.008-1.38 1.764-1.8 1.626-.63 2.61-.63c.948 0 1.794.204 2.538.612a4.22 4.22 0 0 1 1.746 1.746c.42.744.63 1.602.63 2.574zm-2.61-.72c-.012-.648-.246-1.164-.702-1.548-.456-.396-1.014-.594-1.674-.594-.624 0-1.152.192-1.584.576-.42.372-.678.894-.774 1.566h4.734zm9.976-4.194c1.188 0 2.148.378 2.88 1.134.732.744 1.098 1.788 1.098 3.132V267h-2.52v-5.508c0-.792-.198-1.398-.594-1.818-.396-.432-.936-.648-1.62-.648-.696 0-1.248.216-1.656.648-.396.42-.594 1.026-.594 1.818V267h-2.52v-9.972h2.52v1.242c.336-.432.762-.768 1.278-1.008a3.96 3.96 0 0 1 1.728-.378zm9.308 2.214v4.824c0 .336.078.582.234.738.168.144.444.216.828.216h1.17V267h-1.584c-2.124 0-3.186-1.032-3.186-3.096v-4.806h-1.188v-2.07h1.188v-2.466h2.538v2.466h2.232v2.07h-2.232zm7.721 1.602c0-1.236.276-2.34.828-3.312.564-.984 1.326-1.746 2.286-2.286.972-.552 2.058-.828 3.258-.828 1.404 0 2.634.36 3.69 1.08s1.794 1.716 2.214 2.988h-2.898c-.288-.6-.696-1.05-1.224-1.35-.516-.3-1.116-.45-1.8-.45-.732 0-1.386.174-1.962.522-.564.336-1.008.816-1.332 1.44-.312.624-.468 1.356-.468 2.196 0 .828.156 1.56.468 2.196.324.624.768 1.11 1.332 1.458.576.336 1.23.504 1.962.504.684 0 1.284-.15 1.8-.45.528-.312.936-.768 1.224-1.368h2.898c-.42 1.284-1.158 2.286-2.214 3.006-1.044.708-2.274 1.062-3.69 1.062-1.2 0-2.286-.27-3.258-.81-.96-.552-1.722-1.314-2.286-2.286-.552-.972-.828-2.076-.828-3.312zm16.949-2.124c.324-.528.744-.942 1.26-1.242.528-.3 1.128-.45 1.8-.45v2.646h-.666c-.792 0-1.392.186-1.8.558-.396.372-.594 1.02-.594 1.944V267h-2.52v-9.972h2.52v1.548zm14.027 3.222c0 .36-.024.684-.072.972h-7.29c.06.72.312 1.284.756 1.692s.99.612 1.638.612c.936 0 1.602-.402 1.998-1.206h2.718c-.288.96-.84 1.752-1.656 2.376-.816.612-1.818.918-3.006.918-.96 0-1.824-.21-2.592-.63-.756-.432-1.35-1.038-1.782-1.818-.42-.78-.63-1.68-.63-2.7 0-1.032.21-1.938.63-2.718s1.008-1.38 1.764-1.8 1.626-.63 2.61-.63c.948 0 1.794.204 2.538.612a4.22 4.22 0 0 1 1.746 1.746c.42.744.63 1.602.63 2.574zm-2.61-.72c-.012-.648-.246-1.164-.702-1.548-.456-.396-1.014-.594-1.674-.594-.624 0-1.152.192-1.584.576-.42.372-.678.894-.774 1.566h4.734zm3.802.9c0-1.008.198-1.902.594-2.682.408-.78.954-1.38 1.638-1.8.696-.42 1.47-.63 2.322-.63.744 0 1.392.15 1.944.45.564.3 1.014.678 1.35 1.134v-1.422h2.538V267h-2.538v-1.458c-.324.468-.774.858-1.35 1.17-.564.3-1.218.45-1.962.45-.84 0-1.608-.216-2.304-.648-.684-.432-1.23-1.038-1.638-1.818-.396-.792-.594-1.698-.594-2.718zm7.848.036c0-.612-.12-1.134-.36-1.566-.24-.444-.564-.78-.972-1.008a2.55 2.55 0 0 0-1.314-.36 2.55 2.55 0 0 0-1.296.342c-.396.228-.72.564-.972 1.008-.24.432-.36.948-.36 1.548s.12 1.128.36 1.584c.252.444.576.786.972 1.026.408.24.84.36 1.296.36a2.65 2.65 0 0 0 1.314-.342c.408-.24.732-.576.972-1.008.24-.444.36-.972.36-1.584zm7.933-2.916v4.824c0 .336.078.582.234.738.168.144.444.216.828.216h1.17V267h-1.584c-2.124 0-3.186-1.032-3.186-3.096v-4.806h-1.188v-2.07h1.188v-2.466h2.538v2.466h2.232v2.07h-2.232zm5.322-3.258c-.444 0-.816-.138-1.116-.414-.288-.288-.432-.642-.432-1.062s.144-.768.432-1.044c.3-.288.672-.432 1.116-.432s.81.144 1.098.432c.3.276.45.624.45 1.044s-.15.774-.45 1.062c-.288.276-.654.414-1.098.414zm1.242 1.188V267h-2.52v-9.972h2.52zm6.918 10.134c-.96 0-1.824-.21-2.592-.63-.768-.432-1.374-1.038-1.818-1.818-.432-.78-.648-1.68-.648-2.7s.222-1.92.666-2.7a4.69 4.69 0 0 1 1.854-1.8c.78-.432 1.65-.648 2.61-.648s1.83.216 2.61.648c.78.42 1.392 1.02 1.836 1.8.456.78.684 1.68.684 2.7s-.234 1.92-.702 2.7a4.78 4.78 0 0 1-1.872 1.818c-.78.42-1.656.63-2.628.63zm0-2.196c.456 0 .882-.108 1.278-.324.408-.228.732-.564.972-1.008s.36-.984.36-1.62c0-.948-.252-1.674-.756-2.178a2.41 2.41 0 0 0-1.818-.774 2.41 2.41 0 0 0-1.818.774c-.48.504-.72 1.23-.72 2.178s.234 1.68.702 2.196c.48.504 1.08.756 1.8.756zm12.577-8.082c1.188 0 2.148.378 2.88 1.134.732.744 1.098 1.788 1.098 3.132V267h-2.52v-5.508c0-.792-.198-1.398-.594-1.818-.396-.432-.936-.648-1.62-.648-.696 0-1.248.216-1.656.648-.396.42-.594 1.026-.594 1.818V267h-2.52v-9.972h2.52v1.242c.336-.432.762-.768 1.278-1.008a3.96 3.96 0 0 1 1.728-.378z" class="I"/><path d="M1007.5 205v90" class="B G H"/><circle cx="1007.5" cy="295.5" r="4.5" transform="rotate(180 1007.5 295.5)" class="C"/><path d="M892.81 254.436v2.034h-3.348V267h-2.52v-10.53h-3.348v-2.034h9.216zm11.108 7.362c0 .36-.024.684-.072.972h-7.29c.06.72.312 1.284.756 1.692s.99.612 1.638.612c.936 0 1.602-.402 1.998-1.206h2.718c-.288.96-.84 1.752-1.656 2.376-.816.612-1.818.918-3.006.918-.96 0-1.824-.21-2.592-.63-.756-.432-1.35-1.038-1.782-1.818-.42-.78-.63-1.68-.63-2.7 0-1.032.21-1.938.63-2.718s1.008-1.38 1.764-1.8 1.626-.63 2.61-.63c.948 0 1.794.204 2.538.612a4.22 4.22 0 0 1 1.746 1.746c.42.744.63 1.602.63 2.574zm-2.61-.72c-.012-.648-.246-1.164-.702-1.548-.456-.396-1.014-.594-1.674-.594-.624 0-1.152.192-1.584.576-.42.372-.678.894-.774 1.566h4.734zm8.266 6.084c-.816 0-1.548-.144-2.196-.432-.648-.3-1.164-.702-1.548-1.206a3.07 3.07 0 0 1-.612-1.674h2.538c.048.384.234.702.558.954.336.252.75.378 1.242.378.48 0 .852-.096 1.116-.288.276-.192.414-.438.414-.738 0-.324-.168-.564-.504-.72-.324-.168-.846-.348-1.566-.54-.744-.18-1.356-.366-1.836-.558-.468-.192-.876-.486-1.224-.882-.336-.396-.504-.93-.504-1.602a2.62 2.62 0 0 1 .468-1.512c.324-.456.78-.816 1.368-1.08.6-.264 1.302-.396 2.106-.396 1.188 0 2.136.3 2.844.9.708.588 1.098 1.386 1.17 2.394h-2.412c-.036-.396-.204-.708-.504-.936-.288-.24-.678-.36-1.17-.36-.456 0-.81.084-1.062.252-.24.168-.36.402-.36.702 0 .336.168.594.504.774.336.168.858.342 1.566.522.72.18 1.314.366 1.782.558a3.04 3.04 0 0 1 1.206.9c.348.396.528.924.54 1.584 0 .576-.162 1.092-.486 1.548-.312.456-.768.816-1.368 1.08-.588.252-1.278.378-2.07.378zm8.926-8.064v4.824c0 .336.078.582.234.738.168.144.444.216.828.216h1.17V267h-1.584c-2.124 0-3.186-1.032-3.186-3.096v-4.806h-1.188v-2.07h1.188v-2.466h2.538v2.466h2.232v2.07H918.5zm5.323-3.258c-.444 0-.816-.138-1.116-.414-.288-.288-.432-.642-.432-1.062s.144-.768.432-1.044c.3-.288.672-.432 1.116-.432s.81.144 1.098.432c.3.276.45.624.45 1.044s-.15.774-.45 1.062c-.288.276-.654.414-1.098.414zm1.242 1.188V267h-2.52v-9.972h2.52zm8.016-.144c1.188 0 2.148.378 2.88 1.134.732.744 1.098 1.788 1.098 3.132V267h-2.52v-5.508c0-.792-.198-1.398-.594-1.818-.396-.432-.936-.648-1.62-.648-.696 0-1.248.216-1.656.648-.396.42-.594 1.026-.594 1.818V267h-2.52v-9.972h2.52v1.242c.336-.432.762-.768 1.278-1.008a3.96 3.96 0 0 1 1.728-.378zm10.28-.018c.744 0 1.398.15 1.962.45.564.288 1.008.666 1.332 1.134v-1.422h2.538v10.044c0 .924-.186 1.746-.558 2.466-.372.732-.93 1.308-1.674 1.728-.744.432-1.644.648-2.7.648-1.416 0-2.58-.33-3.492-.99-.9-.66-1.41-1.56-1.53-2.7h2.502c.132.456.414.816.846 1.08.444.276.978.414 1.602.414.732 0 1.326-.222 1.782-.666.456-.432.684-1.092.684-1.98v-1.548c-.324.468-.774.858-1.35 1.17-.564.312-1.212.468-1.944.468-.84 0-1.608-.216-2.304-.648s-1.248-1.038-1.656-1.818c-.396-.792-.594-1.698-.594-2.718 0-1.008.198-1.902.594-2.682.408-.78.954-1.38 1.638-1.8.696-.42 1.47-.63 2.322-.63zm3.294 5.148c0-.612-.12-1.134-.36-1.566-.24-.444-.564-.78-.972-1.008a2.55 2.55 0 0 0-1.314-.36 2.55 2.55 0 0 0-1.296.342c-.396.228-.72.564-.972 1.008-.24.432-.36.948-.36 1.548s.12 1.128.36 1.584c.252.444.576.786.972 1.026.408.24.84.36 1.296.36a2.65 2.65 0 0 0 1.314-.342c.408-.24.732-.576.972-1.008.24-.444.36-.972.36-1.584zm8.64-.036c0-1.008.198-1.902.594-2.682.408-.78.954-1.38 1.638-1.8.696-.42 1.47-.63 2.322-.63.744 0 1.392.15 1.944.45.564.3 1.014.678 1.35 1.134v-1.422h2.538V267h-2.538v-1.458c-.324.468-.774.858-1.35 1.17-.564.3-1.218.45-1.962.45-.84 0-1.608-.216-2.304-.648-.684-.432-1.23-1.038-1.638-1.818-.396-.792-.594-1.698-.594-2.718zm7.848.036c0-.612-.12-1.134-.36-1.566-.24-.444-.564-.78-.972-1.008a2.55 2.55 0 0 0-1.314-.36 2.55 2.55 0 0 0-1.296.342c-.396.228-.72.564-.972 1.008-.24.432-.36.948-.36 1.548s.12 1.128.36 1.584c.252.444.576.786.972 1.026.408.24.84.36 1.296.36a2.65 2.65 0 0 0 1.314-.342c.408-.24.732-.576.972-1.008.24-.444.36-.972.36-1.584zm10.525-5.13c1.188 0 2.148.378 2.88 1.134.732.744 1.098 1.788 1.098 3.132V267h-2.52v-5.508c0-.792-.198-1.398-.594-1.818-.396-.432-.936-.648-1.62-.648-.696 0-1.248.216-1.656.648-.396.42-.594 1.026-.594 1.818V267h-2.52v-9.972h2.52v1.242c.336-.432.762-.768 1.278-1.008a3.96 3.96 0 0 1 1.728-.378zm5.727 5.094c0-1.008.198-1.902.594-2.682.408-.78.96-1.38 1.656-1.8s1.47-.63 2.322-.63a4.16 4.16 0 0 1 1.854.432c.588.276 1.056.648 1.404 1.116v-4.734h2.556V267h-2.556v-1.476c-.312.492-.75.888-1.314 1.188s-1.218.45-1.962.45c-.84 0-1.608-.216-2.304-.648s-1.248-1.038-1.656-1.818c-.396-.792-.594-1.698-.594-2.718zm7.848.036c0-.612-.12-1.134-.36-1.566-.24-.444-.564-.78-.972-1.008a2.55 2.55 0 0 0-1.314-.36 2.55 2.55 0 0 0-1.296.342c-.396.228-.72.564-.972 1.008-.24.432-.36.948-.36 1.548s.12 1.128.36 1.584c.252.444.576.786.972 1.026.408.24.84.36 1.296.36a2.65 2.65 0 0 0 1.314-.342c.408-.24.732-.576.972-1.008.24-.444.36-.972.36-1.584zm-153.811 25.2l-1.908-2.286c-.528.132-1.068.198-1.62.198-1.176 0-2.256-.276-3.24-.828a6.2 6.2 0 0 1-2.34-2.286c-.576-.984-.864-2.094-.864-3.33 0-1.224.288-2.322.864-3.294a6.16 6.16 0 0 1 2.34-2.304c.984-.552 2.064-.828 3.24-.828 1.188 0 2.268.276 3.24.828a6.03 6.03 0 0 1 2.322 2.304c.576.972.864 2.07.864 3.294 0 1.116-.24 2.136-.72 3.06-.468.912-1.11 1.656-1.926 2.232l2.88 3.24h-3.132zm-7.38-8.532c0 .84.162 1.578.486 2.214s.774 1.128 1.35 1.476c.588.336 1.26.504 2.016.504s1.422-.168 1.998-.504c.576-.348 1.026-.84 1.35-1.476s.486-1.374.486-2.214-.162-1.572-.486-2.196c-.324-.636-.774-1.122-1.35-1.458s-1.242-.504-1.998-.504-1.428.168-2.016.504c-.576.336-1.026.822-1.35 1.458-.324.624-.486 1.356-.486 2.196zm21.602-3.654V285h-2.538v-1.26c-.324.432-.75.774-1.278 1.026-.516.24-1.08.36-1.692.36-.78 0-1.47-.162-2.07-.486-.6-.336-1.074-.822-1.422-1.458-.336-.648-.504-1.416-.504-2.304v-5.85h2.52v5.49c0 .792.198 1.404.594 1.836.396.42.936.63 1.62.63.696 0 1.242-.21 1.638-.63.396-.432.594-1.044.594-1.836v-5.49h2.538zm1.838 4.95c0-1.008.198-1.902.594-2.682.408-.78.954-1.38 1.638-1.8.696-.42 1.47-.63 2.322-.63.744 0 1.392.15 1.944.45.564.3 1.014.678 1.35 1.134v-1.422h2.538V285h-2.538v-1.458c-.324.468-.774.858-1.35 1.17-.564.3-1.218.45-1.962.45-.84 0-1.608-.216-2.304-.648-.684-.432-1.23-1.038-1.638-1.818-.396-.792-.594-1.698-.594-2.718zm7.848.036c0-.612-.12-1.134-.36-1.566-.24-.444-.564-.78-.972-1.008a2.55 2.55 0 0 0-1.314-.36 2.55 2.55 0 0 0-1.296.342c-.396.228-.72.564-.972 1.008-.24.432-.36.948-.36 1.548s.12 1.128.36 1.584c.252.444.576.786.972 1.026.408.24.84.36 1.296.36a2.65 2.65 0 0 0 1.314-.342c.408-.24.732-.576.972-1.008.24-.444.36-.972.36-1.584zm7.52-8.334V285h-2.52v-13.32h2.52zm3.767 2.16c-.444 0-.816-.138-1.116-.414-.288-.288-.432-.642-.432-1.062s.144-.768.432-1.044c.3-.288.672-.432 1.116-.432s.81.144 1.098.432c.3.276.45.624.45 1.044s-.15.774-.45 1.062c-.288.276-.654.414-1.098.414zm1.242 1.188V285h-2.52v-9.972h2.52zm5.424 2.07v4.824c0 .336.078.582.234.738.168.144.444.216.828.216h1.17V285h-1.584c-2.124 0-3.186-1.032-3.186-3.096v-4.806h-1.188v-2.07h1.188v-2.466h2.538v2.466h2.232v2.07h-2.232zm13.585-2.07l-6.174 14.688h-2.682l2.16-4.968-3.996-9.72h2.826l2.574 6.966 2.61-6.966h2.682zm13.351 7.578h-5.004l-.828 2.394h-2.646l4.518-12.582h2.934L905.721 285h-2.664l-.828-2.394zm-.684-2.016l-1.818-5.256-1.818 5.256h3.636zm9.681 4.572c-.816 0-1.548-.144-2.196-.432-.648-.3-1.164-.702-1.548-1.206a3.07 3.07 0 0 1-.612-1.674h2.538c.048.384.234.702.558.954.336.252.75.378 1.242.378.48 0 .852-.096 1.116-.288.276-.192.414-.438.414-.738 0-.324-.168-.564-.504-.72-.324-.168-.846-.348-1.566-.54-.744-.18-1.356-.366-1.836-.558-.468-.192-.876-.486-1.224-.882-.336-.396-.504-.93-.504-1.602a2.62 2.62 0 0 1 .468-1.512c.324-.456.78-.816 1.368-1.08.6-.264 1.302-.396 2.106-.396 1.188 0 2.136.3 2.844.9.708.588 1.098 1.386 1.17 2.394h-2.412c-.036-.396-.204-.708-.504-.936-.288-.24-.678-.36-1.17-.36-.456 0-.81.084-1.062.252-.24.168-.36.402-.36.702 0 .336.168.594.504.774.336.168.858.342 1.566.522.72.18 1.314.366 1.782.558a3.04 3.04 0 0 1 1.206.9c.348.396.528.924.54 1.584 0 .576-.162 1.092-.486 1.548-.312.456-.768.816-1.368 1.08-.588.252-1.278.378-2.07.378zm9.809 0c-.816 0-1.548-.144-2.196-.432-.648-.3-1.164-.702-1.548-1.206a3.07 3.07 0 0 1-.612-1.674h2.538c.048.384.234.702.558.954.336.252.75.378 1.242.378.48 0 .852-.096 1.116-.288.276-.192.414-.438.414-.738 0-.324-.168-.564-.504-.72-.324-.168-.846-.348-1.566-.54-.744-.18-1.356-.366-1.836-.558-.468-.192-.876-.486-1.224-.882-.336-.396-.504-.93-.504-1.602a2.62 2.62 0 0 1 .468-1.512c.324-.456.78-.816 1.368-1.08.6-.264 1.302-.396 2.106-.396 1.188 0 2.136.3 2.844.9.708.588 1.098 1.386 1.17 2.394h-2.412c-.036-.396-.204-.708-.504-.936-.288-.24-.678-.36-1.17-.36-.456 0-.81.084-1.062.252-.24.168-.36.402-.36.702 0 .336.168.594.504.774.336.168.858.342 1.566.522.72.18 1.314.366 1.782.558a3.04 3.04 0 0 1 1.206.9c.348.396.528.924.54 1.584 0 .576-.162 1.092-.486 1.548-.312.456-.768.816-1.368 1.08-.588.252-1.278.378-2.07.378zm15.406-10.134V285h-2.538v-1.26c-.324.432-.75.774-1.278 1.026-.516.24-1.08.36-1.692.36-.78 0-1.47-.162-2.07-.486-.6-.336-1.074-.822-1.422-1.458-.336-.648-.504-1.416-.504-2.304v-5.85h2.52v5.49c0 .792.198 1.404.594 1.836.396.42.936.63 1.62.63.696 0 1.242-.21 1.638-.63.396-.432.594-1.044.594-1.836v-5.49h2.538zm5.007 1.548c.324-.528.744-.942 1.26-1.242.528-.3 1.128-.45 1.8-.45v2.646h-.666c-.792 0-1.392.186-1.8.558-.396.372-.594 1.02-.594 1.944V285h-2.52v-9.972h2.52v1.548zm4.109 3.402c0-1.008.198-1.902.594-2.682.408-.78.954-1.38 1.638-1.8.696-.42 1.47-.63 2.322-.63.744 0 1.392.15 1.944.45.564.3 1.014.678 1.35 1.134v-1.422h2.538V285h-2.538v-1.458c-.324.468-.774.858-1.35 1.17-.564.3-1.218.45-1.962.45-.84 0-1.608-.216-2.304-.648-.684-.432-1.23-1.038-1.638-1.818-.396-.792-.594-1.698-.594-2.718zm7.848.036c0-.612-.12-1.134-.36-1.566-.24-.444-.564-.78-.972-1.008a2.55 2.55 0 0 0-1.314-.36 2.55 2.55 0 0 0-1.296.342c-.396.228-.72.564-.972 1.008-.24.432-.36.948-.36 1.548s.12 1.128.36 1.584c.252.444.576.786.972 1.026.408.24.84.36 1.296.36a2.65 2.65 0 0 0 1.314-.342c.408-.24.732-.576.972-1.008.24-.444.36-.972.36-1.584zm10.525-5.13c1.188 0 2.148.378 2.88 1.134.732.744 1.098 1.788 1.098 3.132V285h-2.52v-5.508c0-.792-.198-1.398-.594-1.818-.396-.432-.936-.648-1.62-.648-.696 0-1.248.216-1.656.648-.396.42-.594 1.026-.594 1.818V285h-2.52v-9.972h2.52v1.242c.336-.432.762-.768 1.278-1.008a3.96 3.96 0 0 1 1.728-.378zm5.726 5.13c0-1.032.211-1.932.631-2.7.42-.78 1.002-1.38 1.746-1.8.744-.432 1.596-.648 2.556-.648 1.236 0 2.256.312 3.06.936.816.612 1.362 1.476 1.638 2.592h-2.718c-.144-.432-.39-.768-.738-1.008-.336-.252-.756-.378-1.26-.378-.72 0-1.29.264-1.71.792-.42.516-.63 1.254-.63 2.214 0 .948.21 1.686.63 2.214.42.516.99.774 1.71.774 1.02 0 1.686-.456 1.998-1.368h2.718c-.276 1.08-.822 1.938-1.638 2.574s-1.836.954-3.06.954c-.96 0-1.812-.21-2.556-.63a4.58 4.58 0 0 1-1.746-1.8c-.42-.78-.631-1.686-.631-2.718zm20.747-.216c0 .36-.024.684-.072.972h-7.29c.06.72.312 1.284.756 1.692s.99.612 1.638.612c.936 0 1.602-.402 1.998-1.206h2.718c-.288.96-.84 1.752-1.656 2.376-.816.612-1.818.918-3.006.918-.96 0-1.824-.21-2.592-.63-.756-.432-1.35-1.038-1.782-1.818-.42-.78-.63-1.68-.63-2.7 0-1.032.21-1.938.63-2.718s1.008-1.38 1.764-1.8 1.626-.63 2.61-.63c.948 0 1.794.204 2.538.612a4.22 4.22 0 0 1 1.746 1.746c.42.744.63 1.602.63 2.574zm-2.61-.72c-.012-.648-.246-1.164-.702-1.548-.456-.396-1.014-.594-1.674-.594-.624 0-1.152.192-1.584.576-.42.372-.678.894-.774 1.566h4.734z" class="I"/></svg>