<?xml version="1.0" encoding="UTF-8"?>
<svg xmlns="http://www.w3.org/2000/svg" xmlns:xlink="http://www.w3.org/1999/xlink" viewBox="0 0 100 100" width="100px" height="100px">
<g id="surface195458961">
<path style=" stroke:none;fill-rule:nonzero;fill:rgb(100%,100%,100%);fill-opacity:1;" d="M 22.601562 4 C 12.328125 4 4 12.328125 4 22.601562 L 4 77.601562 C 4 87.875 12.328125 96.199219 22.601562 96.199219 L 77.601562 96.199219 C 87.875 96.199219 96.199219 87.875 96.199219 77.601562 L 96.199219 22.554688 C 95.976562 12.304688 87.699219 4 77.601562 4 Z M 22.601562 8 L 77.601562 8 C 85.503906 8 92.023438 14.492188 92.199219 22.644531 L 92.199219 77.601562 C 92.199219 85.730469 85.730469 92.199219 77.601562 92.199219 L 66 92.199219 L 66 58 L 75.695312 58 L 78.359375 42 L 66 42 L 66 38 C 66 36.898438 66.109375 36.8125 66.503906 36.558594 C 66.898438 36.304688 68.058594 36 70 36 L 78 36 L 78 22.542969 L 76.613281 22.097656 C 76.613281 22.097656 70.261719 20 64 20 C 58.191406 20 53.914062 21.90625 51.359375 25.265625 C 48.804688 28.625 48 33.074219 48 38 L 48 42 L 42 42 L 42 58 L 48 58 L 48 92.199219 L 22.601562 92.199219 C 14.472656 92.199219 8 85.730469 8 77.601562 L 8 22.601562 C 8 14.472656 14.472656 8 22.601562 8 Z M 64 24 C 68.335938 24 72.347656 25.074219 74 25.546875 L 74 32 L 70 32 C 67.742188 32 65.898438 32.195312 64.34375 33.191406 C 62.789062 34.1875 62 36.101562 62 38 L 62 46 L 73.640625 46 L 72.304688 54 L 62 54 L 62 92.199219 L 52 92.199219 L 52 54 L 46 54 L 46 46 L 52 46 L 52 38 C 52 33.527344 52.800781 29.980469 54.542969 27.6875 C 56.285156 25.394531 59.007812 24 64 24 Z M 64 24 "/>
</g>
</svg>
