<?xml version="1.0" encoding="UTF-8"?>
<svg xmlns="http://www.w3.org/2000/svg" xmlns:xlink="http://www.w3.org/1999/xlink" viewBox="0 0 100 100" width="100px" height="100px">
<g id="surface195481359">
<path style=" stroke:none;fill-rule:nonzero;fill:rgb(100%,100%,100%);fill-opacity:1;" d="M 32 6 C 17.710938 6 6 17.710938 6 32 L 6 68 C 6 82.289062 17.710938 94 32 94 L 68 94 C 82.289062 94 94 82.289062 94 68 L 94 32 C 94 17.710938 82.289062 6 68 6 Z M 32 10 L 68 10 C 80.109375 10 90 19.890625 90 32 L 90 68 C 90 80.109375 80.109375 90 68 90 L 32 90 C 19.890625 90 10 80.109375 10 68 L 10 32 C 10 19.890625 19.890625 10 32 10 Z M 74 22 C 71.800781 22 70 23.800781 70 26 C 70 28.199219 71.800781 30 74 30 C 76.199219 30 78 28.199219 78 26 C 78 23.800781 76.199219 22 74 22 Z M 50 28 C 37.910156 28 28 37.910156 28 50 C 28 62.089844 37.910156 72 50 72 C 62.089844 72 72 62.089844 72 50 C 72 37.910156 62.089844 28 50 28 Z M 50 32 C 59.910156 32 68 40.089844 68 50 C 68 59.910156 59.910156 68 50 68 C 40.089844 68 32 59.910156 32 50 C 32 40.089844 40.089844 32 50 32 Z M 50 32 "/>
</g>
</svg>
