<?xml version="1.0" encoding="UTF-8"?>
<svg xmlns="http://www.w3.org/2000/svg" xmlns:xlink="http://www.w3.org/1999/xlink" viewBox="0 0 100 100" width="100px" height="100px">
<g id="surface195455446">
<path style=" stroke:none;fill-rule:nonzero;fill:rgb(100%,100%,100%);fill-opacity:1;" d="M 68.398438 11.199219 C 56.511719 11.199219 46.800781 20.914062 46.800781 32.800781 C 46.800781 33.570312 46.859375 34.300781 46.945312 35.019531 C 32.285156 33.628906 19.117188 26.136719 10.136719 15.320312 C 9.746094 14.851562 9.164062 14.585938 8.554688 14.601562 C 7.851562 14.617188 7.210938 15 6.863281 15.609375 C 5.09375 18.703125 4 22.429688 4 26.398438 C 4 31.125 5.636719 35.429688 8.246094 39.023438 C 7.75 38.820312 7.179688 38.851562 6.695312 38.609375 C 6.074219 38.300781 5.339844 38.332031 4.75 38.695312 C 4.160156 39.0625 3.800781 39.707031 3.800781 40.398438 L 3.800781 40.601562 C 3.800781 48.003906 7.617188 54.3125 13.230469 58.257812 C 13.128906 58.242188 13.03125 58.242188 12.929688 58.226562 C 12.238281 58.109375 11.535156 58.367188 11.082031 58.898438 C 10.625 59.433594 10.480469 60.167969 10.703125 60.832031 C 13.023438 67.796875 18.707031 73.324219 25.851562 75.152344 C 20.226562 78.445312 13.765625 80.398438 6.800781 80.398438 C 5.199219 80.398438 3.671875 80.386719 2.484375 80.21875 C 1.550781 80.082031 0.648438 80.617188 0.320312 81.503906 C -0.0078125 82.386719 0.328125 83.382812 1.125 83.886719 C 10.222656 89.675781 20.816406 93 32.398438 93 C 51.050781 93 65.660156 85.210938 75.476562 74.074219 C 85.292969 62.9375 90.398438 48.507812 90.398438 35 L 90.398438 33.304688 C 94.019531 30.507812 97.324219 27.214844 99.875 23.289062 C 100.355469 22.546875 100.292969 21.574219 99.71875 20.902344 C 99.144531 20.226562 98.195312 20.011719 97.386719 20.371094 C 96.332031 20.839844 95.109375 20.949219 94.011719 21.316406 C 95.402344 19.441406 96.601562 17.414062 97.304688 15.207031 C 97.554688 14.421875 97.292969 13.5625 96.652344 13.042969 C 96.007812 12.527344 95.113281 12.457031 94.398438 12.871094 C 91 14.839844 87.226562 16.261719 83.117188 17.226562 C 79.214844 13.605469 74.078125 11.199219 68.398438 11.199219 Z M 68.398438 15.199219 C 73.425781 15.199219 78.121094 17.371094 81.347656 20.777344 C 81.828125 21.285156 82.542969 21.503906 83.226562 21.355469 C 85.871094 20.78125 88.367188 19.96875 90.769531 19.007812 C 89.378906 20.867188 87.710938 22.519531 85.769531 23.683594 C 84.945312 24.171875 84.585938 25.175781 84.910156 26.078125 C 85.234375 26.980469 86.152344 27.523438 87.097656 27.378906 C 89.070312 27.082031 90.878906 26.292969 92.777344 25.78125 C 91.074219 27.605469 89.234375 29.300781 87.214844 30.789062 C 86.703125 31.164062 86.398438 31.761719 86.398438 32.398438 L 86.398438 35 C 86.398438 47.492188 81.609375 61.0625 72.476562 71.425781 C 63.34375 81.789062 49.945312 89 32.398438 89 C 24.292969 89 16.757812 87.269531 9.914062 84.128906 C 18.34375 83.484375 26.078125 80.433594 32.414062 75.589844 C 32.875 75.238281 33.160156 74.703125 33.199219 74.125 C 33.234375 73.546875 33.019531 72.980469 32.605469 72.574219 C 32.222656 72.078125 31.625 71.792969 31 71.800781 C 24.480469 71.800781 19.019531 67.972656 16.023438 62.5625 C 16.152344 62.566406 16.269531 62.601562 16.398438 62.601562 C 18.347656 62.601562 20.296875 62.390625 22.085938 61.941406 C 22.988281 61.71875 23.617188 60.902344 23.605469 59.972656 C 23.59375 59.046875 22.941406 58.246094 22.035156 58.046875 C 14.855469 56.453125 9.523438 50.726562 8.308594 43.476562 C 10.359375 44.148438 12.464844 44.660156 14.675781 44.796875 C 15.578125 44.851562 16.40625 44.296875 16.695312 43.441406 C 16.984375 42.582031 16.664062 41.636719 15.910156 41.136719 C 11.042969 37.890625 8 32.53125 8 26.398438 C 8 24.144531 8.554688 22.050781 9.308594 20.089844 C 19.378906 30.992188 33.414062 38.425781 49.101562 39.199219 C 49.167969 39.203125 49.234375 39.203125 49.300781 39.199219 C 49.300781 39.199219 49.304688 39.199219 49.304688 39.199219 C 49.949219 39.230469 50.566406 38.949219 50.96875 38.445312 C 51.367188 37.9375 51.5 37.273438 51.324219 36.652344 C 50.972656 35.421875 50.800781 34.234375 50.800781 32.800781 C 50.800781 23.085938 58.683594 15.199219 68.398438 15.199219 Z M 68.398438 15.199219 "/>
</g>
</svg>
